<svg id="Peerbuds-red" xmlns="http://www.w3.org/2000/svg" width="208" height="208" viewBox="0 0 208 208">
  <defs>
    <style>
      .cls-1, .cls-3 {
        fill: #f67864;
      }

      .cls-2 {
        fill: #fff;
      }

      .cls-2, .cls-3 {
        fill-rule: evenodd;
      }
    </style>
  </defs>
  <g id="Shapes">
    <circle class="cls-1" cx="104" cy="-400" r="100"/>
    <path id="pb" class="cls-2" d="M74.968-424.967A24.212,24.212,0,0,1,92.7-417.611a24.368,24.368,0,0,1,7.376,17.846A24.366,24.366,0,0,1,92.7-381.92a24.133,24.133,0,0,1-17.732,7.4A24.686,24.686,0,0,1,64-377.031a4.789,4.789,0,0,1-2.459-2.753,4.867,4.867,0,0,1,.236-3.7,4.634,4.634,0,0,1,2.743-2.421,4.571,4.571,0,0,1,3.641.19,15.353,15.353,0,0,0,6.809,1.567,14.918,14.918,0,0,0,10.97-4.557,15.107,15.107,0,0,0,4.587-11.058,14.953,14.953,0,0,0-4.587-11.011,14.843,14.843,0,0,0-10.97-4.6,14.9,14.9,0,0,0-11.018,4.6,14.95,14.95,0,0,0-4.587,11.011v39.488a4.751,4.751,0,0,1-1.371,3.417,4.717,4.717,0,0,1-3.4,1.376,4.559,4.559,0,0,1-3.357-1.376,4.668,4.668,0,0,1-1.419-3.417v-39.488a24.369,24.369,0,0,1,7.377-17.846,24.266,24.266,0,0,1,17.78-7.356h0Zm57.832,0a24.213,24.213,0,0,1,17.732,7.356,24.368,24.368,0,0,1,7.377,17.846,24.366,24.366,0,0,1-7.377,17.845,24.134,24.134,0,0,1-17.732,7.4,24.188,24.188,0,0,1-17.78-7.4,24.366,24.366,0,0,1-7.377-17.845v-39.488a4.515,4.515,0,0,1,1.419-3.37,4.481,4.481,0,0,1,3.357-1.424,4.637,4.637,0,0,1,3.405,1.424,4.593,4.593,0,0,1,1.371,3.37v39.488a15.1,15.1,0,0,0,4.587,11.058A14.971,14.971,0,0,0,132.8-384.15a14.918,14.918,0,0,0,10.97-4.557,15.108,15.108,0,0,0,4.587-11.058,14.954,14.954,0,0,0-4.587-11.011,14.843,14.843,0,0,0-10.97-4.6,15.592,15.592,0,0,0-6.337,1.329,4.557,4.557,0,0,1-3.641.095,4.6,4.6,0,0,1-2.648-2.563,4.6,4.6,0,0,1-.094-3.655,4.6,4.6,0,0,1,2.553-2.657,24.833,24.833,0,0,1,10.167-2.136h0Z"/>
    <path id="Ellipse_1_copy" data-name="Ellipse 1 copy" class="cls-3" d="M103.992,3.987A100.014,100.014,0,1,1,3.993,104,100.007,100.007,0,0,1,103.992,3.987ZM74.968,79.033a25.151,25.151,0,0,1,25.109,25.2,25.232,25.232,0,0,1-25.109,25.249A24.686,24.686,0,0,1,64,126.969a4.789,4.789,0,0,1-2.459-2.753,4.867,4.867,0,0,1,.236-3.7,4.634,4.634,0,0,1,2.743-2.421,4.571,4.571,0,0,1,3.641.19,15.353,15.353,0,0,0,6.809,1.567,14.918,14.918,0,0,0,10.97-4.557,15.107,15.107,0,0,0,4.587-11.058A15.69,15.69,0,0,0,74.968,88.62a15.69,15.69,0,0,0-15.6,15.615v39.488a4.693,4.693,0,0,1-4.776,4.793,4.559,4.559,0,0,1-3.357-1.376,4.668,4.668,0,0,1-1.419-3.417V104.235a25.151,25.151,0,0,1,25.156-25.2h0Zm57.832,0a25.152,25.152,0,0,1,25.109,25.2A25.092,25.092,0,0,1,115.02,122.08a24.366,24.366,0,0,1-7.377-17.845V64.747a4.855,4.855,0,0,1,4.776-4.794,4.771,4.771,0,0,1,4.776,4.794v39.488A15.61,15.61,0,0,0,132.8,119.85a14.918,14.918,0,0,0,10.97-4.557,15.108,15.108,0,0,0,4.587-11.058A15.691,15.691,0,0,0,132.8,88.62a15.6,15.6,0,0,0-6.337,1.329,4.731,4.731,0,0,1-6.289-2.468,4.764,4.764,0,0,1,2.459-6.312A24.836,24.836,0,0,1,132.8,79.033h0Z"/>
    <path id="P" class="cls-3" d="M270.778-433.407a33.49,33.49,0,0,1,24.613,10.251,33.737,33.737,0,0,1,10.212,24.7,33.734,33.734,0,0,1-10.212,24.7,33.485,33.485,0,0,1-24.613,10.25,34.224,34.224,0,0,1-15.224-3.5,6.42,6.42,0,0,1-3.3-3.693,6.525,6.525,0,0,1,.317-4.966,6.21,6.21,0,0,1,3.679-3.247,5.946,5.946,0,0,1,4.884.318,21.7,21.7,0,0,0,9.642,2.228,21.151,21.151,0,0,0,15.541-6.494,21.307,21.307,0,0,0,6.471-15.6,21.308,21.308,0,0,0-6.471-15.6,21.151,21.151,0,0,0-15.541-6.494,21.149,21.149,0,0,0-15.541,6.494,21.307,21.307,0,0,0-6.47,15.6v51.827a6.378,6.378,0,0,1-1.84,4.584,6.219,6.219,0,0,1-4.567,1.91,6.013,6.013,0,0,1-4.5-1.91,6.264,6.264,0,0,1-1.9-4.584V-398.9a33.623,33.623,0,0,1,10.4-24.385,33.337,33.337,0,0,1,24.422-10.124h0Z"/>
    <path id="b" class="cls-3" d="M556.617-430.165a32.479,32.479,0,0,1,23.788,9.869,32.689,32.689,0,0,1,9.9,23.939,32.688,32.688,0,0,1-9.9,23.939,32.373,32.373,0,0,1-23.788,9.933,32.445,32.445,0,0,1-23.851-9.933,32.687,32.687,0,0,1-9.895-23.939v-52.972a6.057,6.057,0,0,1,1.9-4.521,6.011,6.011,0,0,1,4.5-1.91,6.22,6.22,0,0,1,4.568,1.91,6.163,6.163,0,0,1,1.839,4.521v52.972a20.266,20.266,0,0,0,6.153,14.835,20.085,20.085,0,0,0,14.78,6.112,20.014,20.014,0,0,0,14.717-6.112,20.27,20.27,0,0,0,6.153-14.835,20.062,20.062,0,0,0-6.153-14.771,19.913,19.913,0,0,0-14.717-6.176,20.924,20.924,0,0,0-8.5,1.783,6.107,6.107,0,0,1-4.884.127,6.165,6.165,0,0,1-3.552-3.438,6.167,6.167,0,0,1-.127-4.9,6.168,6.168,0,0,1,3.425-3.566,33.315,33.315,0,0,1,13.638-2.865h0Z"/>
    <path id="eer" class="cls-3" d="M327.039-404.252a23.728,23.728,0,0,1,8.436-12.988,23.664,23.664,0,0,1,14.971-5.157,23.579,23.579,0,0,1,14.907,5.157,23.744,23.744,0,0,1,8.436,12.988h-46.75Zm23.407,41.767q18.52,0,29.179-12.1a5.737,5.737,0,0,0,1.523-4.266,5.768,5.768,0,0,0-1.967-4.139,5.9,5.9,0,0,0-4.313-1.464,5.51,5.51,0,0,0-4.06,1.974q-7.168,8.086-20.362,8.086a23.588,23.588,0,0,1-14.907-5.094,23.275,23.275,0,0,1-8.5-12.8H380.45a5.787,5.787,0,0,0,4.25-1.783,5.727,5.727,0,0,0,1.713-4.2,35.308,35.308,0,0,0-2.855-14.007,35.646,35.646,0,0,0-7.675-11.46A34.731,34.731,0,0,0,350.446-434.3a35.1,35.1,0,0,0-14.019,2.865,36.2,36.2,0,0,0-11.482,7.7,34.776,34.776,0,0,0-10.53,25.467,35.147,35.147,0,0,0,2.855,13.943,36.018,36.018,0,0,0,7.675,11.333,34.907,34.907,0,0,0,25.5,10.506h0Zm53.665-41.767a23.728,23.728,0,0,1,8.436-12.988,23.666,23.666,0,0,1,14.971-5.157,23.579,23.579,0,0,1,14.907,5.157,23.733,23.733,0,0,1,8.436,12.988h-46.75Zm23.407,41.767q18.522,0,29.179-12.1a5.733,5.733,0,0,0,1.523-4.266,5.768,5.768,0,0,0-1.967-4.139,5.9,5.9,0,0,0-4.313-1.464,5.513,5.513,0,0,0-4.06,1.974q-7.168,8.086-20.362,8.086a23.59,23.59,0,0,1-14.907-5.094,23.275,23.275,0,0,1-8.5-12.8h53.411a5.787,5.787,0,0,0,4.25-1.783,5.727,5.727,0,0,0,1.713-4.2,35.308,35.308,0,0,0-2.855-14.007,35.646,35.646,0,0,0-7.675-11.46A34.731,34.731,0,0,0,427.518-434.3a35.106,35.106,0,0,0-14.019,2.865,36.215,36.215,0,0,0-11.482,7.7,34.776,34.776,0,0,0-10.53,25.467,35.147,35.147,0,0,0,2.855,13.943,36.018,36.018,0,0,0,7.675,11.333,34.907,34.907,0,0,0,25.5,10.506h0Zm57.344-63.478v-2.356a5.727,5.727,0,0,0-1.713-4.2,5.722,5.722,0,0,0-4.186-1.782,5.794,5.794,0,0,0-4.251,1.782,5.73,5.73,0,0,0-1.712,4.2v59.912a5.73,5.73,0,0,0,1.712,4.2,5.9,5.9,0,0,0,4.251,1.719,5.822,5.822,0,0,0,4.186-1.719,5.727,5.727,0,0,0,1.713-4.2v-29.924a25.01,25.01,0,0,1,6.153-17,19.078,19.078,0,0,1,14.844-7,5.584,5.584,0,0,0,4.186-1.782,5.625,5.625,0,0,0,1.776-4.2,5.624,5.624,0,0,0-1.776-4.2,5.587,5.587,0,0,0-4.186-1.782,30.231,30.231,0,0,0-21,8.34h0Z"/>
    <path id="uds" class="cls-3" d="M652.4-432.584a5.831,5.831,0,0,0-1.776,4.265v29.925a25.942,25.942,0,0,1-5.709,16.935q-5.709,7.068-13.829,7.068-8.057,0-13.828-7.068a25.942,25.942,0,0,1-5.709-16.935v-30.115a5.727,5.727,0,0,0-1.713-4.2,5.722,5.722,0,0,0-4.187-1.782,5.794,5.794,0,0,0-4.25,1.782,5.726,5.726,0,0,0-1.712,4.2v30.115q0,14.835,9.2,25.4,9.2,10.506,22.2,10.506a28.143,28.143,0,0,0,19.538-7.832v1.91a5.758,5.758,0,0,0,1.776,4.2,5.684,5.684,0,0,0,4.187,1.719,5.682,5.682,0,0,0,4.186-1.719,5.864,5.864,0,0,0,1.713-4.2v-59.912a5.94,5.94,0,0,0-1.713-4.265,5.682,5.682,0,0,0-4.186-1.719,5.684,5.684,0,0,0-4.187,1.719h0Zm90.647-20.056a5.628,5.628,0,0,0-1.776-4.2,5.585,5.585,0,0,0-4.187-1.783,5.583,5.583,0,0,0-4.186,1.783,5.727,5.727,0,0,0-1.713,4.2V-425.2a33.639,33.639,0,0,0-23.344-9.1,33.4,33.4,0,0,0-24.866,10.569,34.887,34.887,0,0,0-10.34,25.4,34.811,34.811,0,0,0,10.34,25.34,33.5,33.5,0,0,0,24.866,10.506,33.769,33.769,0,0,0,23.344-9.041v3.119a5.727,5.727,0,0,0,1.713,4.2,5.682,5.682,0,0,0,4.186,1.719,5.684,5.684,0,0,0,4.187-1.719,5.629,5.629,0,0,0,1.776-4.2V-452.64Zm-51.7,71.245a23.47,23.47,0,0,1-6.85-16.936,23.547,23.547,0,0,1,6.85-17,22.242,22.242,0,0,1,16.493-7,22.24,22.24,0,0,1,16.493,7,23.335,23.335,0,0,1,6.851,16.936v0.063a23.471,23.471,0,0,1-6.851,16.936,22.237,22.237,0,0,1-16.493,7,22.238,22.238,0,0,1-16.493-7h0Zm84.621,18.91a22.133,22.133,0,0,0,15.668-6.112,19.779,19.779,0,0,0,6.471-14.835q0-9.869-7.232-15.217-4.123-2.993-13.384-5.6-7.3-2.037-9.452-3.565-2.347-1.782-2.347-5.539a8.153,8.153,0,0,1,2.981-6.367,10.679,10.679,0,0,1,7.3-2.674,11.187,11.187,0,0,1,5.773,1.528,9.252,9.252,0,0,1,3.742,4.138,5.791,5.791,0,0,0,3.362,3.12,5.731,5.731,0,0,0,4.5-.191,5.571,5.571,0,0,0,3.108-3.311,5.588,5.588,0,0,0-.19-4.584,20.7,20.7,0,0,0-8.12-9.168,22.786,22.786,0,0,0-12.179-3.438,21.987,21.987,0,0,0-15.668,6.112,19.693,19.693,0,0,0-6.534,14.835q0,9.805,7.232,15.025,4.122,3.057,13.321,5.6,7.294,1.974,9.452,3.629a6.613,6.613,0,0,1,2.473,5.667,8.083,8.083,0,0,1-3.044,6.367,10.455,10.455,0,0,1-7.232,2.674,12.426,12.426,0,0,1-7.168-2.483,16.819,16.819,0,0,1-5.075-5.158,5.664,5.664,0,0,0-3.679-2.674,5.777,5.777,0,0,0-4.5.7,5.971,5.971,0,0,0-2.6,3.756,5.705,5.705,0,0,0,.7,4.457,29.23,29.23,0,0,0,8.69,8.977,24.124,24.124,0,0,0,13.638,4.33h0Z"/>
  </g>
  <g id="Shapes-2" data-name="Shapes">
    <path id="Ellipse_2_copy" data-name="Ellipse 2 copy" class="cls-2" d="M104-229A100,100,0,0,1,204-129,100,100,0,0,1,104-29,100,100,0,0,1,4-129,100,100,0,0,1,104-229Zm0,8.812A91.189,91.189,0,0,1,195.188-129,91.188,91.188,0,0,1,104-37.812,91.187,91.187,0,0,1,12.813-129,91.188,91.188,0,0,1,104-220.188Z"/>
    <path id="pb-2" data-name="pb" class="cls-2" d="M74.968-154.967A24.212,24.212,0,0,1,92.7-147.611a24.368,24.368,0,0,1,7.376,17.846A24.366,24.366,0,0,1,92.7-111.92a24.133,24.133,0,0,1-17.732,7.4A24.686,24.686,0,0,1,64-107.031a4.789,4.789,0,0,1-2.459-2.753,4.867,4.867,0,0,1,.236-3.7,4.634,4.634,0,0,1,2.743-2.421,4.571,4.571,0,0,1,3.641.19,15.353,15.353,0,0,0,6.809,1.567,14.918,14.918,0,0,0,10.97-4.557,15.107,15.107,0,0,0,4.587-11.058,14.953,14.953,0,0,0-4.587-11.011,14.843,14.843,0,0,0-10.97-4.6,14.9,14.9,0,0,0-11.018,4.6,14.95,14.95,0,0,0-4.587,11.011v39.488a4.752,4.752,0,0,1-1.371,3.417,4.716,4.716,0,0,1-3.4,1.376A4.558,4.558,0,0,1,51.23-86.86a4.669,4.669,0,0,1-1.419-3.417v-39.488a24.369,24.369,0,0,1,7.377-17.846,24.266,24.266,0,0,1,17.78-7.356h0Zm57.832,0a24.213,24.213,0,0,1,17.732,7.356,24.368,24.368,0,0,1,7.377,17.846,24.366,24.366,0,0,1-7.377,17.845,24.134,24.134,0,0,1-17.732,7.4,24.188,24.188,0,0,1-17.78-7.4,24.366,24.366,0,0,1-7.377-17.845v-39.488a4.515,4.515,0,0,1,1.419-3.37,4.481,4.481,0,0,1,3.357-1.424,4.637,4.637,0,0,1,3.405,1.424,4.593,4.593,0,0,1,1.371,3.37v39.488a15.1,15.1,0,0,0,4.587,11.058A14.971,14.971,0,0,0,132.8-114.15a14.918,14.918,0,0,0,10.97-4.557,15.108,15.108,0,0,0,4.587-11.058,14.954,14.954,0,0,0-4.587-11.011,14.843,14.843,0,0,0-10.97-4.6,15.592,15.592,0,0,0-6.337,1.329,4.557,4.557,0,0,1-3.641.095,4.6,4.6,0,0,1-2.648-2.563,4.6,4.6,0,0,1-.094-3.655,4.6,4.6,0,0,1,2.553-2.657,24.833,24.833,0,0,1,10.167-2.136h0Z"/>
    <path id="P-2" data-name="P" class="cls-2" d="M270.778-163.407a33.49,33.49,0,0,1,24.613,10.251,33.737,33.737,0,0,1,10.212,24.7,33.734,33.734,0,0,1-10.212,24.7A33.485,33.485,0,0,1,270.778-93.5,34.228,34.228,0,0,1,255.554-97a6.418,6.418,0,0,1-3.3-3.693,6.525,6.525,0,0,1,.317-4.966,6.21,6.21,0,0,1,3.679-3.247,5.946,5.946,0,0,1,4.884.318,21.7,21.7,0,0,0,9.642,2.228,21.151,21.151,0,0,0,15.541-6.494,21.307,21.307,0,0,0,6.471-15.6,21.308,21.308,0,0,0-6.471-15.6,21.152,21.152,0,0,0-15.541-6.5,21.15,21.15,0,0,0-15.541,6.5,21.307,21.307,0,0,0-6.47,15.6v51.827a6.376,6.376,0,0,1-1.84,4.584,6.218,6.218,0,0,1-4.567,1.91,6.012,6.012,0,0,1-4.5-1.91,6.262,6.262,0,0,1-1.9-4.584V-128.9a33.625,33.625,0,0,1,10.4-24.385,33.337,33.337,0,0,1,24.422-10.124h0Z"/>
    <path id="b-2" data-name="b" class="cls-2" d="M556.617-160.165a32.479,32.479,0,0,1,23.788,9.869,32.689,32.689,0,0,1,9.9,23.939,32.688,32.688,0,0,1-9.9,23.939,32.373,32.373,0,0,1-23.788,9.933,32.445,32.445,0,0,1-23.851-9.933,32.687,32.687,0,0,1-9.895-23.939v-52.972a6.057,6.057,0,0,1,1.9-4.521,6.011,6.011,0,0,1,4.5-1.91,6.22,6.22,0,0,1,4.568,1.91,6.163,6.163,0,0,1,1.839,4.521v52.972a20.266,20.266,0,0,0,6.153,14.835,20.085,20.085,0,0,0,14.78,6.112,20.014,20.014,0,0,0,14.717-6.112,20.27,20.27,0,0,0,6.153-14.835,20.062,20.062,0,0,0-6.153-14.771,19.913,19.913,0,0,0-14.717-6.176,20.924,20.924,0,0,0-8.5,1.783,6.107,6.107,0,0,1-4.884.127,6.165,6.165,0,0,1-3.552-3.438,6.167,6.167,0,0,1-.127-4.9,6.168,6.168,0,0,1,3.425-3.566,33.315,33.315,0,0,1,13.638-2.865h0Z"/>
    <path id="eer-2" data-name="eer" class="cls-2" d="M327.039-134.252a23.728,23.728,0,0,1,8.436-12.988,23.664,23.664,0,0,1,14.971-5.157,23.579,23.579,0,0,1,14.907,5.157,23.744,23.744,0,0,1,8.436,12.988h-46.75Zm23.407,41.767q18.52,0,29.179-12.1a5.736,5.736,0,0,0,1.523-4.266,5.768,5.768,0,0,0-1.967-4.139,5.9,5.9,0,0,0-4.313-1.464,5.51,5.51,0,0,0-4.06,1.974q-7.168,8.087-20.362,8.086a23.582,23.582,0,0,1-14.907-5.094,23.275,23.275,0,0,1-8.5-12.8H380.45a5.787,5.787,0,0,0,4.25-1.783,5.727,5.727,0,0,0,1.713-4.2,35.308,35.308,0,0,0-2.855-14.007,35.635,35.635,0,0,0-7.675-11.46A34.731,34.731,0,0,0,350.446-164.3a35.1,35.1,0,0,0-14.019,2.865,36.2,36.2,0,0,0-11.482,7.7,34.776,34.776,0,0,0-10.53,25.467,35.147,35.147,0,0,0,2.855,13.943,36.018,36.018,0,0,0,7.675,11.333,34.907,34.907,0,0,0,25.5,10.506h0Zm53.665-41.767a23.728,23.728,0,0,1,8.436-12.988,23.666,23.666,0,0,1,14.971-5.157,23.579,23.579,0,0,1,14.907,5.157,23.733,23.733,0,0,1,8.436,12.988h-46.75Zm23.407,41.767q18.522,0,29.179-12.1a5.732,5.732,0,0,0,1.523-4.266,5.768,5.768,0,0,0-1.967-4.139,5.9,5.9,0,0,0-4.313-1.464,5.513,5.513,0,0,0-4.06,1.974q-7.168,8.087-20.362,8.086a23.584,23.584,0,0,1-14.907-5.094,23.275,23.275,0,0,1-8.5-12.8h53.411a5.787,5.787,0,0,0,4.25-1.783,5.727,5.727,0,0,0,1.713-4.2,35.308,35.308,0,0,0-2.855-14.007,35.635,35.635,0,0,0-7.675-11.46A34.731,34.731,0,0,0,427.518-164.3a35.106,35.106,0,0,0-14.019,2.865,36.215,36.215,0,0,0-11.482,7.7,34.776,34.776,0,0,0-10.53,25.467,35.147,35.147,0,0,0,2.855,13.943,36.018,36.018,0,0,0,7.675,11.333,34.907,34.907,0,0,0,25.5,10.506h0Zm57.344-63.478v-2.356a5.727,5.727,0,0,0-1.713-4.2,5.722,5.722,0,0,0-4.186-1.782,5.794,5.794,0,0,0-4.251,1.782,5.73,5.73,0,0,0-1.712,4.2v59.912a5.729,5.729,0,0,0,1.712,4.2,5.9,5.9,0,0,0,4.251,1.719,5.821,5.821,0,0,0,4.186-1.719,5.726,5.726,0,0,0,1.713-4.2v-29.924a25.01,25.01,0,0,1,6.153-17,19.078,19.078,0,0,1,14.844-7,5.584,5.584,0,0,0,4.186-1.782,5.625,5.625,0,0,0,1.776-4.2,5.624,5.624,0,0,0-1.776-4.2,5.587,5.587,0,0,0-4.186-1.782,30.231,30.231,0,0,0-21,8.34h0Z"/>
    <path id="uds-2" data-name="uds" class="cls-2" d="M652.4-162.584a5.831,5.831,0,0,0-1.776,4.265v29.925a25.947,25.947,0,0,1-5.709,16.936q-5.709,7.066-13.829,7.067-8.057,0-13.828-7.067a25.947,25.947,0,0,1-5.709-16.936V-158.51a5.727,5.727,0,0,0-1.713-4.2,5.722,5.722,0,0,0-4.187-1.782,5.794,5.794,0,0,0-4.25,1.782,5.726,5.726,0,0,0-1.712,4.2v30.116q0,14.835,9.2,25.4,9.2,10.506,22.2,10.506a28.141,28.141,0,0,0,19.538-7.832v1.91a5.757,5.757,0,0,0,1.776,4.2,5.684,5.684,0,0,0,4.187,1.719,5.682,5.682,0,0,0,4.186-1.719,5.863,5.863,0,0,0,1.713-4.2v-59.912a5.94,5.94,0,0,0-1.713-4.265,5.682,5.682,0,0,0-4.186-1.719,5.684,5.684,0,0,0-4.187,1.719h0Zm90.647-20.056a5.628,5.628,0,0,0-1.776-4.2,5.585,5.585,0,0,0-4.187-1.783,5.583,5.583,0,0,0-4.186,1.783,5.727,5.727,0,0,0-1.713,4.2V-155.2a33.639,33.639,0,0,0-23.344-9.1,33.4,33.4,0,0,0-24.866,10.569,34.887,34.887,0,0,0-10.34,25.4,34.811,34.811,0,0,0,10.34,25.34,33.5,33.5,0,0,0,24.866,10.506,33.767,33.767,0,0,0,23.344-9.041v3.12a5.726,5.726,0,0,0,1.713,4.2,5.682,5.682,0,0,0,4.186,1.719,5.684,5.684,0,0,0,4.187-1.719,5.628,5.628,0,0,0,1.776-4.2V-182.64Zm-51.7,71.245a23.47,23.47,0,0,1-6.85-16.936,23.547,23.547,0,0,1,6.85-17,22.242,22.242,0,0,1,16.493-7,22.24,22.24,0,0,1,16.493,7,23.335,23.335,0,0,1,6.851,16.936v0.063a23.471,23.471,0,0,1-6.851,16.936,22.237,22.237,0,0,1-16.493,7,22.238,22.238,0,0,1-16.493-7h0Zm84.621,18.91A22.129,22.129,0,0,0,791.633-98.6a19.777,19.777,0,0,0,6.471-14.835q0-9.868-7.232-15.217-4.123-2.993-13.384-5.6-7.3-2.037-9.452-3.565-2.347-1.782-2.347-5.539a8.153,8.153,0,0,1,2.981-6.367,10.679,10.679,0,0,1,7.3-2.674,11.187,11.187,0,0,1,5.773,1.528,9.252,9.252,0,0,1,3.742,4.138,5.791,5.791,0,0,0,3.362,3.12,5.731,5.731,0,0,0,4.5-.191,5.571,5.571,0,0,0,3.108-3.311,5.588,5.588,0,0,0-.19-4.584,20.7,20.7,0,0,0-8.12-9.168,22.786,22.786,0,0,0-12.179-3.438,21.987,21.987,0,0,0-15.668,6.112,19.693,19.693,0,0,0-6.534,14.835q0,9.805,7.232,15.025,4.122,3.057,13.321,5.6,7.294,1.974,9.452,3.629a6.613,6.613,0,0,1,2.473,5.667,8.083,8.083,0,0,1-3.044,6.367,10.455,10.455,0,0,1-7.232,2.674,12.426,12.426,0,0,1-7.168-2.483,16.819,16.819,0,0,1-5.075-5.158,5.664,5.664,0,0,0-3.679-2.674,5.777,5.777,0,0,0-4.5.7,5.971,5.971,0,0,0-2.6,3.756,5.705,5.705,0,0,0,.7,4.457,29.235,29.235,0,0,0,8.69,8.977,24.124,24.124,0,0,0,13.638,4.33h0Z"/>
  </g>
</svg>
