<svg id="Peerbuds-red" xmlns="http://www.w3.org/2000/svg" width="569" height="125" viewBox="0 0 569 125">
  <defs>
    <style>
      .cls-1, .cls-3 {
        fill: #f67864;
      }

      .cls-2 {
        fill: #fff;
      }

      .cls-2, .cls-3 {
        fill-rule: evenodd;
      }
    </style>
  </defs>
  <g id="Shapes">
    <circle class="cls-1" cx="-129" cy="61" r="100"/>
    <path id="pb" class="cls-2" d="M-158.032,36.033A24.213,24.213,0,0,1-140.3,43.389a24.37,24.37,0,0,1,7.376,17.846A24.37,24.37,0,0,1-140.3,79.08a24.135,24.135,0,0,1-17.733,7.4A24.677,24.677,0,0,1-169,83.969a4.785,4.785,0,0,1-2.459-2.753,4.869,4.869,0,0,1,.236-3.7,4.634,4.634,0,0,1,2.743-2.42,4.566,4.566,0,0,1,3.641.19,15.347,15.347,0,0,0,6.809,1.566,14.921,14.921,0,0,0,10.971-4.556,15.11,15.11,0,0,0,4.587-11.059,14.956,14.956,0,0,0-4.587-11.011,14.847,14.847,0,0,0-10.971-4.6,14.9,14.9,0,0,0-11.017,4.6,14.948,14.948,0,0,0-4.587,11.011v39.488a4.752,4.752,0,0,1-1.372,3.417,4.715,4.715,0,0,1-3.4,1.376,4.56,4.56,0,0,1-3.358-1.376,4.67,4.67,0,0,1-1.418-3.417V61.235a24.367,24.367,0,0,1,7.377-17.845,24.265,24.265,0,0,1,17.779-7.356h0Zm57.832,0a24.212,24.212,0,0,1,17.732,7.356,24.368,24.368,0,0,1,7.377,17.846A24.367,24.367,0,0,1-82.468,79.08a24.133,24.133,0,0,1-17.732,7.4,24.188,24.188,0,0,1-17.78-7.4,24.367,24.367,0,0,1-7.377-17.845V21.747a4.514,4.514,0,0,1,1.419-3.37,4.48,4.48,0,0,1,3.357-1.424,4.636,4.636,0,0,1,3.405,1.424,4.593,4.593,0,0,1,1.371,3.37V61.235a15.106,15.106,0,0,0,4.587,11.059A14.972,14.972,0,0,0-100.2,76.85a14.919,14.919,0,0,0,10.97-4.556,15.109,15.109,0,0,0,4.587-11.059A14.955,14.955,0,0,0-89.23,50.224a14.845,14.845,0,0,0-10.97-4.6,15.6,15.6,0,0,0-6.337,1.329,4.553,4.553,0,0,1-3.641.095,4.6,4.6,0,0,1-2.648-2.563,4.6,4.6,0,0,1-.094-3.654,4.6,4.6,0,0,1,2.553-2.658A24.836,24.836,0,0,1-100.2,36.033h0Z"/>
    <path id="P" class="cls-3" d="M37.778,27.594A33.487,33.487,0,0,1,62.391,37.844,33.735,33.735,0,0,1,72.6,62.547a33.732,33.732,0,0,1-10.213,24.7A33.483,33.483,0,0,1,37.778,97.5,34.229,34.229,0,0,1,22.554,94a6.422,6.422,0,0,1-3.3-3.693,6.529,6.529,0,0,1,.317-4.966,6.212,6.212,0,0,1,3.679-3.247,5.948,5.948,0,0,1,4.884.318,21.7,21.7,0,0,0,9.642,2.228A21.154,21.154,0,0,0,53.32,78.146a22.038,22.038,0,0,0,0-31.2,21.154,21.154,0,0,0-15.541-6.494,21.153,21.153,0,0,0-15.541,6.494,21.311,21.311,0,0,0-6.47,15.6v51.827a6.377,6.377,0,0,1-1.84,4.584,6.219,6.219,0,0,1-4.567,1.91,6.013,6.013,0,0,1-4.5-1.91,6.265,6.265,0,0,1-1.9-4.584V62.1a33.623,33.623,0,0,1,10.4-24.385A33.336,33.336,0,0,1,37.778,27.594h0Z"/>
    <path id="b" class="cls-3" d="M323.617,30.835A32.48,32.48,0,0,1,347.405,40.7a32.69,32.69,0,0,1,9.9,23.939,32.689,32.689,0,0,1-9.9,23.939,33.528,33.528,0,0,1-47.639,0,32.688,32.688,0,0,1-9.9-23.939V11.671a6.056,6.056,0,0,1,1.9-4.52,6.01,6.01,0,0,1,4.5-1.91,6.4,6.4,0,0,1,6.407,6.431V64.643A20.938,20.938,0,0,0,323.617,85.59a20.015,20.015,0,0,0,14.717-6.112,20.269,20.269,0,0,0,6.153-14.835,20.062,20.062,0,0,0-6.153-14.771A19.914,19.914,0,0,0,323.617,43.7a20.927,20.927,0,0,0-8.5,1.783,6.441,6.441,0,0,1-8.563-8.213,6.169,6.169,0,0,1,3.425-3.565,33.314,33.314,0,0,1,13.638-2.865h0Z"/>
    <path id="eer" class="cls-3" d="M94.039,56.748a24.12,24.12,0,0,1,46.75,0H94.039Zm23.407,41.767q18.521,0,29.179-12.1a5.944,5.944,0,0,0-.444-8.4,5.9,5.9,0,0,0-4.313-1.464,5.509,5.509,0,0,0-4.06,1.974q-7.168,8.086-20.362,8.086a23.585,23.585,0,0,1-14.907-5.094,23.279,23.279,0,0,1-8.5-12.8H147.45a5.787,5.787,0,0,0,4.25-1.783,5.726,5.726,0,0,0,1.713-4.2,36.329,36.329,0,0,0-10.53-25.467A34.734,34.734,0,0,0,117.446,26.7a35.1,35.1,0,0,0-14.019,2.865,36.223,36.223,0,0,0-11.482,7.7,34.776,34.776,0,0,0-10.53,25.467A35.152,35.152,0,0,0,84.27,76.676a36.016,36.016,0,0,0,7.675,11.333,34.908,34.908,0,0,0,25.5,10.505h0Zm53.665-41.767a24.12,24.12,0,0,1,46.75,0h-46.75Zm23.407,41.767q18.522,0,29.179-12.1a5.944,5.944,0,0,0-.444-8.4,5.9,5.9,0,0,0-4.313-1.464,5.513,5.513,0,0,0-4.06,1.974q-7.168,8.086-20.362,8.086a23.587,23.587,0,0,1-14.907-5.094,23.278,23.278,0,0,1-8.5-12.8h53.411a5.787,5.787,0,0,0,4.25-1.783,5.726,5.726,0,0,0,1.713-4.2,36.329,36.329,0,0,0-10.53-25.467A34.734,34.734,0,0,0,194.518,26.7,35.106,35.106,0,0,0,180.5,29.562a36.229,36.229,0,0,0-11.482,7.7,34.777,34.777,0,0,0-10.53,25.467,35.153,35.153,0,0,0,2.855,13.943,36.028,36.028,0,0,0,7.675,11.333,34.908,34.908,0,0,0,25.5,10.505h0Zm57.344-63.478V32.682a5.968,5.968,0,0,0-5.9-5.985,5.792,5.792,0,0,0-4.251,1.783,5.729,5.729,0,0,0-1.712,4.2V92.594a5.729,5.729,0,0,0,1.712,4.2,5.9,5.9,0,0,0,4.251,1.719,5.821,5.821,0,0,0,4.186-1.719,5.726,5.726,0,0,0,1.713-4.2V62.669a25.01,25.01,0,0,1,6.153-17,19.079,19.079,0,0,1,14.844-7,6.078,6.078,0,0,0,5.962-5.985,6.078,6.078,0,0,0-5.962-5.985,30.232,30.232,0,0,0-21,8.34h0Z"/>
    <path id="uds" class="cls-3" d="M419.4,28.416a5.832,5.832,0,0,0-1.776,4.266V62.606a25.945,25.945,0,0,1-5.709,16.936q-5.709,7.067-13.829,7.067-8.056,0-13.828-7.067a25.945,25.945,0,0,1-5.709-16.936V32.49a5.968,5.968,0,0,0-5.9-5.985,5.791,5.791,0,0,0-4.25,1.783,5.725,5.725,0,0,0-1.712,4.2V62.606q0,14.836,9.2,25.4,9.2,10.505,22.2,10.505a28.143,28.143,0,0,0,19.538-7.831v1.91a5.757,5.757,0,0,0,1.776,4.2,5.957,5.957,0,0,0,8.373,0,5.863,5.863,0,0,0,1.713-4.2V32.682a5.941,5.941,0,0,0-1.713-4.266,5.957,5.957,0,0,0-8.373,0h0ZM510.043,8.36a5.628,5.628,0,0,0-1.776-4.2,5.807,5.807,0,0,0-8.373,0,5.726,5.726,0,0,0-1.713,4.2V35.8a34.509,34.509,0,0,0-48.21,1.464,34.889,34.889,0,0,0-10.34,25.4,34.813,34.813,0,0,0,10.34,25.34,34.67,34.67,0,0,0,48.21,1.464v3.12a5.916,5.916,0,0,0,10.086,4.2,5.628,5.628,0,0,0,1.776-4.2V8.36Zm-51.7,71.245a23.471,23.471,0,0,1-6.85-16.936,23.548,23.548,0,0,1,6.85-17,22.922,22.922,0,0,1,32.986,0,23.335,23.335,0,0,1,6.851,16.936v0.064a23.472,23.472,0,0,1-6.851,16.936,22.922,22.922,0,0,1-32.986,0h0Zm84.621,18.91A22.129,22.129,0,0,0,558.633,92.4,19.778,19.778,0,0,0,565.1,77.568q0-9.868-7.232-15.217-4.123-2.992-13.384-5.6-7.3-2.037-9.452-3.565-2.347-1.782-2.347-5.539a8.153,8.153,0,0,1,2.981-6.367,10.68,10.68,0,0,1,7.3-2.674,11.19,11.19,0,0,1,5.773,1.528,9.254,9.254,0,0,1,3.742,4.139,5.791,5.791,0,0,0,3.362,3.12,5.728,5.728,0,0,0,4.5-.191,5.894,5.894,0,0,0,2.918-7.895,20.7,20.7,0,0,0-8.12-9.168A22.786,22.786,0,0,0,542.965,26.7,21.988,21.988,0,0,0,527.3,32.809a19.693,19.693,0,0,0-6.534,14.835q0,9.806,7.232,15.026,4.122,3.056,13.321,5.6,7.294,1.974,9.452,3.629a6.611,6.611,0,0,1,2.473,5.666,8.083,8.083,0,0,1-3.044,6.367,10.452,10.452,0,0,1-7.232,2.674,12.424,12.424,0,0,1-7.168-2.483,16.819,16.819,0,0,1-5.075-5.157,5.662,5.662,0,0,0-3.679-2.674,5.778,5.778,0,0,0-4.5.7,5.972,5.972,0,0,0-2.6,3.757,5.7,5.7,0,0,0,.7,4.457,29.231,29.231,0,0,0,8.69,8.977,24.124,24.124,0,0,0,13.638,4.33h0Z"/>
  </g>
  <g id="Shapes-2" data-name="Shapes">
    <path id="Ellipse_2_copy" data-name="Ellipse 2 copy" class="cls-2" d="M-129,232A100,100,0,0,1-29,332,100,100,0,0,1-129,432,100,100,0,0,1-229,332,100,100,0,0,1-129,232Zm0,8.813A91.187,91.187,0,0,1-37.812,332,91.188,91.188,0,0,1-129,423.188,91.189,91.189,0,0,1-220.188,332,91.188,91.188,0,0,1-129,240.813Z"/>
    <path id="pb-2" data-name="pb" class="cls-2" d="M-158.032,306.033a24.213,24.213,0,0,1,17.733,7.356,24.371,24.371,0,0,1,7.376,17.846A24.369,24.369,0,0,1-140.3,349.08a24.135,24.135,0,0,1-17.733,7.4A24.683,24.683,0,0,1-169,353.969a4.787,4.787,0,0,1-2.459-2.753,4.869,4.869,0,0,1,.236-3.7,4.637,4.637,0,0,1,2.743-2.421,4.571,4.571,0,0,1,3.641.19,15.351,15.351,0,0,0,6.809,1.567,14.92,14.92,0,0,0,10.971-4.557,15.108,15.108,0,0,0,4.587-11.058,14.954,14.954,0,0,0-4.587-11.011,14.846,14.846,0,0,0-10.971-4.6,14.9,14.9,0,0,0-11.017,4.6,14.947,14.947,0,0,0-4.587,11.011v39.488a4.752,4.752,0,0,1-1.372,3.417,4.715,4.715,0,0,1-3.4,1.376,4.56,4.56,0,0,1-3.358-1.376,4.67,4.67,0,0,1-1.418-3.417V331.235a24.368,24.368,0,0,1,7.377-17.846,24.265,24.265,0,0,1,17.779-7.356h0Zm57.832,0a24.211,24.211,0,0,1,17.732,7.356,24.369,24.369,0,0,1,7.377,17.846,24.366,24.366,0,0,1-7.377,17.845,24.133,24.133,0,0,1-17.732,7.4,24.188,24.188,0,0,1-17.78-7.4,24.366,24.366,0,0,1-7.377-17.845V291.747a4.515,4.515,0,0,1,1.419-3.37,4.481,4.481,0,0,1,3.357-1.424,4.637,4.637,0,0,1,3.405,1.424,4.593,4.593,0,0,1,1.371,3.37v39.488a15.1,15.1,0,0,0,4.587,11.058A14.971,14.971,0,0,0-100.2,346.85a14.918,14.918,0,0,0,10.97-4.557,15.107,15.107,0,0,0,4.587-11.058,14.953,14.953,0,0,0-4.587-11.011,14.843,14.843,0,0,0-10.97-4.6,15.592,15.592,0,0,0-6.337,1.329,4.557,4.557,0,0,1-3.641.095,4.6,4.6,0,0,1-2.648-2.563,4.6,4.6,0,0,1-.094-3.655,4.6,4.6,0,0,1,2.553-2.657,24.833,24.833,0,0,1,10.167-2.136h0Z"/>
    <path id="P-2" data-name="P" class="cls-2" d="M37.778,297.593a33.489,33.489,0,0,1,24.612,10.251,34.984,34.984,0,0,1,0,49.407A33.484,33.484,0,0,1,37.778,367.5,34.225,34.225,0,0,1,22.554,364a6.424,6.424,0,0,1-3.3-3.693,6.528,6.528,0,0,1,.317-4.966,6.212,6.212,0,0,1,3.679-3.247,5.947,5.947,0,0,1,4.884.318,21.7,21.7,0,0,0,9.642,2.228,21.152,21.152,0,0,0,15.541-6.494,22.038,22.038,0,0,0,0-31.2,21.153,21.153,0,0,0-15.541-6.5,21.152,21.152,0,0,0-15.541,6.5,21.309,21.309,0,0,0-6.47,15.6v51.827a6.377,6.377,0,0,1-1.84,4.584,6.219,6.219,0,0,1-4.567,1.91,6.013,6.013,0,0,1-4.5-1.91,6.265,6.265,0,0,1-1.9-4.584V332.1a33.623,33.623,0,0,1,10.4-24.385,33.336,33.336,0,0,1,24.422-10.124h0Z"/>
    <path id="b-2" data-name="b" class="cls-2" d="M323.617,300.835a33.837,33.837,0,1,1-33.746,33.808V281.671a6.511,6.511,0,0,1,6.406-6.431,6.4,6.4,0,0,1,6.407,6.431v52.972a20.938,20.938,0,0,0,20.933,20.947,20.014,20.014,0,0,0,14.717-6.112,20.27,20.27,0,0,0,6.153-14.835,21.049,21.049,0,0,0-20.87-20.947,20.924,20.924,0,0,0-8.5,1.783,6.425,6.425,0,1,1-5.138-11.779,33.315,33.315,0,0,1,13.638-2.865h0Z"/>
    <path id="eer-2" data-name="eer" class="cls-2" d="M94.039,326.748a24.12,24.12,0,0,1,46.75,0H94.039Zm23.407,41.767q18.521,0,29.179-12.1a5.945,5.945,0,0,0-.444-8.405,5.9,5.9,0,0,0-4.313-1.464,5.51,5.51,0,0,0-4.06,1.974q-7.168,8.086-20.362,8.086a23.582,23.582,0,0,1-14.907-5.094,23.276,23.276,0,0,1-8.5-12.8H147.45a5.787,5.787,0,0,0,4.25-1.783,5.727,5.727,0,0,0,1.713-4.2,36.327,36.327,0,0,0-10.53-25.467A34.731,34.731,0,0,0,117.446,296.7a35.1,35.1,0,0,0-14.019,2.865,36.208,36.208,0,0,0-11.482,7.7,34.775,34.775,0,0,0-10.53,25.467,35.147,35.147,0,0,0,2.855,13.943,36.006,36.006,0,0,0,7.675,11.333,34.906,34.906,0,0,0,25.5,10.506h0Zm53.665-41.767a24.12,24.12,0,0,1,46.75,0h-46.75Zm23.407,41.767q18.522,0,29.179-12.1a5.945,5.945,0,0,0-.444-8.405,5.9,5.9,0,0,0-4.313-1.464,5.513,5.513,0,0,0-4.06,1.974q-7.168,8.086-20.362,8.086a23.584,23.584,0,0,1-14.907-5.094,23.275,23.275,0,0,1-8.5-12.8h53.411a5.787,5.787,0,0,0,4.25-1.783,5.727,5.727,0,0,0,1.713-4.2,36.327,36.327,0,0,0-10.53-25.467A34.731,34.731,0,0,0,194.518,296.7a35.106,35.106,0,0,0-14.019,2.865,36.215,36.215,0,0,0-11.482,7.7,34.776,34.776,0,0,0-10.53,25.467,35.147,35.147,0,0,0,2.855,13.943,36.018,36.018,0,0,0,7.675,11.333,34.907,34.907,0,0,0,25.5,10.506h0Zm57.344-63.478v-2.356a5.967,5.967,0,0,0-5.9-5.984,5.794,5.794,0,0,0-4.251,1.782,5.73,5.73,0,0,0-1.712,4.2v59.913a5.73,5.73,0,0,0,1.712,4.2,5.9,5.9,0,0,0,4.251,1.719,5.822,5.822,0,0,0,4.186-1.719,5.727,5.727,0,0,0,1.713-4.2V332.669a25.01,25.01,0,0,1,6.153-17,19.078,19.078,0,0,1,14.844-7,5.985,5.985,0,0,0,0-11.969,30.231,30.231,0,0,0-21,8.34h0Z"/>
    <path id="uds-2" data-name="uds" class="cls-2" d="M419.4,298.416a5.831,5.831,0,0,0-1.776,4.265v29.925a25.947,25.947,0,0,1-5.709,16.936q-5.709,7.067-13.829,7.067-8.056,0-13.828-7.067a25.947,25.947,0,0,1-5.709-16.936V302.49a5.967,5.967,0,0,0-5.9-5.984,5.794,5.794,0,0,0-4.25,1.782,5.726,5.726,0,0,0-1.712,4.2v30.116q0,14.835,9.2,25.4,9.2,10.506,22.2,10.506a28.143,28.143,0,0,0,19.538-7.832v1.911a5.758,5.758,0,0,0,1.776,4.2,5.957,5.957,0,0,0,8.373,0,5.864,5.864,0,0,0,1.713-4.2V302.681a5.94,5.94,0,0,0-1.713-4.265,5.957,5.957,0,0,0-8.373,0h0Zm90.647-20.056a5.916,5.916,0,0,0-10.149-4.2,5.727,5.727,0,0,0-1.713,4.2V305.8a34.51,34.51,0,0,0-48.21,1.465,36.3,36.3,0,0,0,0,50.743,34.669,34.669,0,0,0,48.21,1.465v3.12a5.916,5.916,0,0,0,10.086,4.2,5.628,5.628,0,0,0,1.776-4.2V278.36Zm-51.7,71.245a24.439,24.439,0,0,1,0-33.935,22.921,22.921,0,0,1,32.986,0,23.335,23.335,0,0,1,6.851,16.936v0.063a23.471,23.471,0,0,1-6.851,16.936,22.921,22.921,0,0,1-32.986,0h0Zm84.621,18.91a22.133,22.133,0,0,0,15.668-6.112,19.779,19.779,0,0,0,6.471-14.835q0-9.869-7.232-15.217-4.123-2.993-13.384-5.6-7.3-2.037-9.452-3.565-2.347-1.782-2.347-5.539a8.153,8.153,0,0,1,2.981-6.367,10.679,10.679,0,0,1,7.3-2.674,11.187,11.187,0,0,1,5.773,1.528,9.252,9.252,0,0,1,3.742,4.138,5.791,5.791,0,0,0,3.362,3.12,5.731,5.731,0,0,0,4.5-.191,5.894,5.894,0,0,0,2.918-7.895,20.7,20.7,0,0,0-8.12-9.168,22.786,22.786,0,0,0-12.179-3.438,21.987,21.987,0,0,0-15.668,6.112,19.693,19.693,0,0,0-6.534,14.835q0,9.805,7.232,15.025,4.122,3.057,13.321,5.6,7.294,1.974,9.452,3.629a6.613,6.613,0,0,1,2.473,5.667,8.083,8.083,0,0,1-3.044,6.367,10.455,10.455,0,0,1-7.232,2.674,12.426,12.426,0,0,1-7.168-2.483,16.819,16.819,0,0,1-5.075-5.158,5.664,5.664,0,0,0-3.679-2.674,5.777,5.777,0,0,0-4.5.7,5.971,5.971,0,0,0-2.6,3.756,5.705,5.705,0,0,0,.7,4.457,29.23,29.23,0,0,0,8.69,8.977,24.124,24.124,0,0,0,13.638,4.33h0Z"/>
  </g>
</svg>
