<?xml version="1.0" encoding="utf-8"?>
<!-- Generator: Adobe Illustrator 19.1.0, SVG Export Plug-In . SVG Version: 6.00 Build 0)  -->
<svg xmlns="http://www.w3.org/2000/svg" xmlns:xlink="http://www.w3.org/1999/xlink" version="1.1" id="Capa_1" x="0px" y="0px" viewBox="0 0 67.125 67.125" style="enable-background:new 0 0 67.125 67.125;" xml:space="preserve" width="100px" height="100px">
<g>
	<g>
		<path d="M23.902,0C11.01,0,0.523,10.488,0.523,23.38c0,12.891,10.487,23.379,23.379,23.379c5.461,0,10.487-1.887,14.471-5.037    l24.816,24.817c0.391,0.391,0.902,0.586,1.414,0.586s1.023-0.195,1.414-0.586c0.781-0.78,0.781-2.048,0-2.828L41.292,38.985    c3.721-4.142,5.989-9.613,5.989-15.605C47.282,10.488,36.793,0,23.902,0z M4.523,23.38C4.523,12.694,13.216,4,23.902,4    c10.687,0,19.38,8.694,19.38,19.38c0,5.396-2.221,10.279-5.791,13.795c-0.175,0.092-0.342,0.202-0.488,0.349    c-0.105,0.105-0.194,0.222-0.271,0.343C33.31,40.9,28.825,42.76,23.903,42.76C13.216,42.759,4.523,34.065,4.523,23.38z" fill="#666666"/>
	</g>
</g>
<g>
</g>
<g>
</g>
<g>
</g>
<g>
</g>
<g>
</g>
<g>
</g>
<g>
</g>
<g>
</g>
<g>
</g>
<g>
</g>
<g>
</g>
<g>
</g>
<g>
</g>
<g>
</g>
<g>
</g>
</svg>
