<?xml version="1.0" encoding="iso-8859-1"?>
<!-- Generator: Adobe Illustrator 19.0.0, SVG Export Plug-In . SVG Version: 6.00 Build 0)  -->
<svg version="1.1" id="Layer_1" xmlns="http://www.w3.org/2000/svg" xmlns:xlink="http://www.w3.org/1999/xlink" x="0px" y="0px"
	 viewBox="0 0 512.001 512.001" style="enable-background:new 0 0 512.001 512.001;" xml:space="preserve">
<path style="fill:#60BFE1;" d="M414.233,512H97.767c-10.687,0-19.352-8.664-19.352-19.352v-61.371
	c0-56.711,27.438-110.476,73.396-143.822c8.747-6.347,21.033-4.297,27.234,4.588L256,402.314l76.954-110.271
	c6.193-8.875,18.468-10.939,27.221-4.597c7.565,5.48,14.765,11.623,21.399,18.256c33.54,33.555,52.01,78.151,52.01,125.576v61.371
	C433.584,503.336,424.92,512,414.233,512z"/>
<path style="fill:#2E9ADA;" d="M381.576,305.703c-6.634-6.634-13.834-12.776-21.399-18.256c-8.764-6.349-21.035-4.268-27.221,4.597
	l-76.954,110.271V512h158.233c10.687,0,19.352-8.664,19.352-19.352v-61.371C433.584,383.854,415.115,339.258,381.576,305.703z"/>
<path style="fill:#C7E5F4;" d="M236.648,442.215v69.786h38.703v-69.786l99.619-142.747c-4.723-4.264-9.656-8.298-14.776-12.007
	c-0.003-0.001-0.005-0.004-0.008-0.006c-0.003-0.001-0.006-0.004-0.009-0.006c0,0-0.001-0.001-0.003-0.001
	c-0.001-0.001-0.001-0.001-0.001-0.001c-30.445-22.08-66.468-33.751-104.174-33.751c-37.713,0-73.74,11.674-104.187,33.76
	c-0.003,0.003-0.005,0.005-0.009,0.006c-5.167,3.749-10.086,7.769-14.772,12.011L236.648,442.215z"/>
<g>
	<path style="fill:#60BFE1;" d="M360.195,287.459c-0.003-0.001-0.005-0.004-0.008-0.006c-0.003-0.001-0.006-0.004-0.009-0.006
		c0,0-0.001-0.001-0.003-0.001c-0.001-0.001-0.001-0.001-0.001-0.001c-30.445-22.08-66.468-33.751-104.174-33.751V512h19.352
		v-69.786l99.619-142.747C370.247,295.204,365.314,291.17,360.195,287.459z"/>
	<path style="fill:#60BFE1;" d="M275.352,254.755c-6.389-0.689-12.843-1.06-19.352-1.06c-6.509,0-12.963,0.372-19.352,1.06v82.744
		c0,10.687,8.664,19.352,19.352,19.352s19.352-8.664,19.352-19.352V254.755z"/>
</g>
<path style="fill:#FFEAB2;" d="M256,238.431c-65.736,0-119.216-53.48-119.216-119.216S190.265,0,256,0
	s119.216,53.48,119.216,119.216C375.216,184.952,321.735,238.431,256,238.431z"/>
<g>
	<path style="fill:#FFE08C;" d="M256,0v238.431c65.735,0,119.216-53.48,119.216-119.216S321.735,0,256,0z"/>
	<path style="fill:#FFE08C;" d="M256,121.853c-37.563,0-68.123,30.56-68.123,68.123v27.018c11.575,8.089,24.642,14.18,38.703,17.762
		v-44.78c0-16.222,13.198-29.42,29.42-29.42s29.421,13.198,29.421,29.42v44.78c14.061-3.583,27.129-9.673,38.703-17.762v-27.016
		C324.124,152.413,293.563,121.853,256,121.853z"/>
</g>
<path style="fill:#2E9ADA;" d="M256,253.695v103.156c10.687,0,19.352-8.664,19.352-19.352v-82.744
	C268.963,254.066,262.509,253.695,256,253.695z"/>
<path style="fill:#FFD361;" d="M256,121.853v38.703c16.222,0,29.421,13.198,29.421,29.42v44.78
	c14.061-3.583,27.129-9.673,38.703-17.762v-27.016C324.124,152.413,293.563,121.853,256,121.853z"/>
<path style="fill:#60BFE1;" d="M371.01,474.827h-33.082c-10.687,0-19.352-8.664-19.352-19.352c0-10.687,8.664-19.352,19.352-19.352
	h33.082c10.687,0,19.352,8.664,19.352,19.352C390.362,466.162,381.697,474.827,371.01,474.827z"/>
<g>
</g>
<g>
</g>
<g>
</g>
<g>
</g>
<g>
</g>
<g>
</g>
<g>
</g>
<g>
</g>
<g>
</g>
<g>
</g>
<g>
</g>
<g>
</g>
<g>
</g>
<g>
</g>
<g>
</g>
</svg>
