<svg id="Peerbuds-beta" xmlns="http://www.w3.org/2000/svg" width="800" height="206" viewBox="0 0 800 206">
  <defs>
    <style>
      .cls-1, .cls-2, .cls-4, .cls-6, .cls-7 {
        fill: #f67864;
      }

      .cls-1, .cls-8 {
        fill-rule: evenodd;
      }

      .cls-2, .cls-4 {
        font-size: 51.537px;
      }

      .cls-2, .cls-4, .cls-6 {
        text-anchor: middle;
      }

      .cls-2, .cls-5 {
        font-family: "Typo Grotesk Rounded";
      }

      .cls-3, .cls-4, .cls-6 {
        font-family: "Geoma Regular Demo";
      }

      .cls-6 {
        font-size: 120px;
      }

      .cls-8 {
        fill: #fff;
      }
    </style>
  </defs>
  <path id="eerbuds" class="cls-1" d="M147.729-354a17.478,17.478,0,0,1,6.212-9.563,17.423,17.423,0,0,1,11.022-3.8,17.36,17.36,0,0,1,10.975,3.8A17.482,17.482,0,0,1,182.149-354h-34.42Zm17.234,30.75q13.635,0,21.483-8.906a4.222,4.222,0,0,0,1.12-3.141,4.24,4.24,0,0,0-1.447-3.047,4.344,4.344,0,0,0-3.176-1.078,4.058,4.058,0,0,0-2.989,1.453q-5.279,5.954-14.991,5.953a17.361,17.361,0,0,1-10.975-3.75,17.144,17.144,0,0,1-6.259-9.422h39.324a4.262,4.262,0,0,0,3.129-1.312,4.219,4.219,0,0,0,1.261-3.094,26,26,0,0,0-2.1-10.312,26.233,26.233,0,0,0-5.651-8.438,25.571,25.571,0,0,0-18.727-7.781,25.853,25.853,0,0,0-10.322,2.109,26.682,26.682,0,0,0-8.453,5.672,25.606,25.606,0,0,0-7.752,18.75,25.88,25.88,0,0,0,2.1,10.266,26.546,26.546,0,0,0,5.651,8.344,25.7,25.7,0,0,0,18.775,7.734h0ZM204.473-354a17.471,17.471,0,0,1,6.211-9.563,17.423,17.423,0,0,1,11.022-3.8,17.36,17.36,0,0,1,10.975,3.8A17.482,17.482,0,0,1,238.892-354H204.473Zm17.233,30.75q13.637,0,21.483-8.906a4.223,4.223,0,0,0,1.121-3.141,4.241,4.241,0,0,0-1.448-3.047,4.344,4.344,0,0,0-3.176-1.078,4.058,4.058,0,0,0-2.989,1.453q-5.279,5.954-14.991,5.953a17.361,17.361,0,0,1-10.975-3.75,17.137,17.137,0,0,1-6.258-9.422H243.8a4.262,4.262,0,0,0,3.129-1.312,4.215,4.215,0,0,0,1.261-3.094,26,26,0,0,0-2.1-10.312,26.233,26.233,0,0,0-5.651-8.438,25.571,25.571,0,0,0-18.727-7.781,25.848,25.848,0,0,0-10.321,2.109,26.686,26.686,0,0,0-8.454,5.672,25.606,25.606,0,0,0-7.752,18.75,25.863,25.863,0,0,0,2.1,10.266,26.526,26.526,0,0,0,5.65,8.344,25.7,25.7,0,0,0,18.775,7.734h0Zm42.219-46.734v-1.735a4.219,4.219,0,0,0-1.261-3.094,4.214,4.214,0,0,0-3.083-1.312,4.266,4.266,0,0,0-3.129,1.312,4.219,4.219,0,0,0-1.261,3.094v44.11a4.217,4.217,0,0,0,1.261,3.093,4.341,4.341,0,0,0,3.129,1.266,4.287,4.287,0,0,0,3.083-1.266,4.217,4.217,0,0,0,1.261-3.093v-22.032a18.406,18.406,0,0,1,4.53-12.515,14.044,14.044,0,0,1,10.928-5.157,4.109,4.109,0,0,0,3.082-1.312,4.141,4.141,0,0,0,1.308-3.094,4.141,4.141,0,0,0-1.308-3.094,4.112,4.112,0,0,0-3.082-1.312,22.254,22.254,0,0,0-15.458,6.141h0Zm49.831-3.094a23.914,23.914,0,0,1,17.513,7.265,24.069,24.069,0,0,1,7.286,17.625,24.065,24.065,0,0,1-7.286,17.625,23.836,23.836,0,0,1-17.513,7.313,23.889,23.889,0,0,1-17.56-7.313,24.065,24.065,0,0,1-7.286-17.625v-39a4.46,4.46,0,0,1,1.4-3.328,4.429,4.429,0,0,1,3.316-1.406,4.58,4.58,0,0,1,3.363,1.406,4.54,4.54,0,0,1,1.354,3.328v39a14.918,14.918,0,0,0,4.53,10.922,14.789,14.789,0,0,0,10.882,4.5,14.735,14.735,0,0,0,10.835-4.5,14.922,14.922,0,0,0,4.53-10.922,14.772,14.772,0,0,0-4.53-10.875,14.663,14.663,0,0,0-10.835-4.546A15.412,15.412,0,0,0,307.5-362.3a4.5,4.5,0,0,1-3.6.094,4.54,4.54,0,0,1-2.616-2.531,4.549,4.549,0,0,1-.093-3.61,4.546,4.546,0,0,1,2.522-2.625,24.53,24.53,0,0,1,10.041-2.109h0Zm70.147-1.781a4.291,4.291,0,0,0-1.308,3.14v22.031a19.1,19.1,0,0,1-4.2,12.469q-4.2,5.2-10.181,5.2-5.933,0-10.181-5.2a19.1,19.1,0,0,1-4.2-12.469v-22.171a4.215,4.215,0,0,0-1.261-3.094,4.209,4.209,0,0,0-3.082-1.313,4.261,4.261,0,0,0-3.129,1.313,4.215,4.215,0,0,0-1.261,3.094v22.171a27.524,27.524,0,0,0,6.772,18.7q6.771,7.734,16.346,7.734a20.718,20.718,0,0,0,14.384-5.766v1.407a4.235,4.235,0,0,0,1.308,3.093,4.183,4.183,0,0,0,3.082,1.266,4.183,4.183,0,0,0,3.082-1.266,4.313,4.313,0,0,0,1.261-3.093v-44.11a4.371,4.371,0,0,0-1.261-3.14,4.183,4.183,0,0,0-3.082-1.266,4.183,4.183,0,0,0-3.082,1.266h0ZM450.64-389.63a4.141,4.141,0,0,0-1.308-3.094,4.112,4.112,0,0,0-3.082-1.312,4.112,4.112,0,0,0-3.082,1.312,4.215,4.215,0,0,0-1.261,3.094v20.2a24.768,24.768,0,0,0-17.187-6.7,24.6,24.6,0,0,0-18.307,7.781,25.686,25.686,0,0,0-7.612,18.7,25.632,25.632,0,0,0,7.612,18.657,24.667,24.667,0,0,0,18.307,7.734,24.864,24.864,0,0,0,17.187-6.656v2.3a4.213,4.213,0,0,0,1.261,3.093,4.183,4.183,0,0,0,3.082,1.266,4.183,4.183,0,0,0,3.082-1.266,4.138,4.138,0,0,0,1.308-3.093V-389.63Zm-38.062,52.453a17.278,17.278,0,0,1-5.044-12.469,17.333,17.333,0,0,1,5.044-12.515,16.37,16.37,0,0,1,12.142-5.157,16.373,16.373,0,0,1,12.143,5.157,17.176,17.176,0,0,1,5.044,12.468v0.047a17.278,17.278,0,0,1-5.044,12.469,16.372,16.372,0,0,1-12.143,5.156,16.369,16.369,0,0,1-12.142-5.156h0Zm62.3,13.922a16.293,16.293,0,0,0,11.535-4.5,14.562,14.562,0,0,0,4.764-10.922q0-7.264-5.324-11.2-3.037-2.2-9.854-4.125-5.372-1.5-6.959-2.625a4.792,4.792,0,0,1-1.728-4.078,6,6,0,0,1,2.195-4.688,7.864,7.864,0,0,1,5.371-1.968,8.238,8.238,0,0,1,4.25,1.125,6.809,6.809,0,0,1,2.755,3.046,4.259,4.259,0,0,0,2.475,2.3,4.216,4.216,0,0,0,3.316-.14,4.1,4.1,0,0,0,2.288-2.438,4.115,4.115,0,0,0-.14-3.375,15.252,15.252,0,0,0-5.978-6.75,16.782,16.782,0,0,0-8.966-2.531,16.189,16.189,0,0,0-11.536,4.5,14.5,14.5,0,0,0-4.81,10.922q0,7.22,5.324,11.062,3.034,2.25,9.807,4.125,5.37,1.454,6.959,2.672a4.869,4.869,0,0,1,1.821,4.172,5.954,5.954,0,0,1-2.241,4.688,7.7,7.7,0,0,1-5.324,1.968,9.147,9.147,0,0,1-5.278-1.828,12.378,12.378,0,0,1-3.736-3.8,4.169,4.169,0,0,0-2.709-1.968,4.252,4.252,0,0,0-3.316.515,4.4,4.4,0,0,0-1.914,2.766,4.2,4.2,0,0,0,.513,3.281,21.526,21.526,0,0,0,6.4,6.609,17.756,17.756,0,0,0,10.041,3.188h0Z"/>
  <path id="beta" class="cls-1" d="M549.087-373.083a23.913,23.913,0,0,1,17.513,7.265,24.069,24.069,0,0,1,7.286,17.625,24.065,24.065,0,0,1-7.286,17.625,23.834,23.834,0,0,1-17.513,7.313,23.889,23.889,0,0,1-17.56-7.313,24.064,24.064,0,0,1-7.285-17.625v-39a4.46,4.46,0,0,1,1.4-3.328,4.426,4.426,0,0,1,3.315-1.406,4.58,4.58,0,0,1,3.363,1.406,4.536,4.536,0,0,1,1.354,3.328v39a14.918,14.918,0,0,0,4.53,10.922,14.789,14.789,0,0,0,10.882,4.5,14.735,14.735,0,0,0,10.835-4.5,14.918,14.918,0,0,0,4.53-10.922,14.769,14.769,0,0,0-4.53-10.875,14.663,14.663,0,0,0-10.835-4.546,15.412,15.412,0,0,0-6.258,1.312,4.5,4.5,0,0,1-3.6.094,4.541,4.541,0,0,1-2.615-2.531,4.545,4.545,0,0,1-.094-3.61,4.546,4.546,0,0,1,2.522-2.625,24.53,24.53,0,0,1,10.041-2.109h0ZM587.383-354a17.471,17.471,0,0,1,6.211-9.563,17.423,17.423,0,0,1,11.022-3.8,17.358,17.358,0,0,1,10.975,3.8A17.478,17.478,0,0,1,621.8-354h-34.42Zm17.233,30.75q13.637,0,21.483-8.906a4.223,4.223,0,0,0,1.121-3.141,4.241,4.241,0,0,0-1.448-3.047,4.341,4.341,0,0,0-3.176-1.078,4.058,4.058,0,0,0-2.989,1.453q-5.277,5.954-14.991,5.953a17.361,17.361,0,0,1-10.975-3.75,17.137,17.137,0,0,1-6.258-9.422h39.323a4.26,4.26,0,0,0,3.129-1.312A4.215,4.215,0,0,0,631.1-349.6a25.994,25.994,0,0,0-2.1-10.312,26.249,26.249,0,0,0-5.651-8.438,25.571,25.571,0,0,0-18.728-7.781,25.848,25.848,0,0,0-10.321,2.109,26.671,26.671,0,0,0-8.453,5.672,25.6,25.6,0,0,0-7.753,18.75,25.881,25.881,0,0,0,2.1,10.266,26.512,26.512,0,0,0,5.651,8.344,25.7,25.7,0,0,0,18.774,7.734h0Zm48.711-52.875v-13.5a4.219,4.219,0,0,0-1.261-3.094,4.116,4.116,0,0,0-3.083-1.312,4.114,4.114,0,0,0-3.082,1.312,4.141,4.141,0,0,0-1.308,3.094v13.5h-6.772a4.266,4.266,0,0,0-3.129,1.312,4.219,4.219,0,0,0-1.261,3.094,4.219,4.219,0,0,0,1.261,3.094,4.262,4.262,0,0,0,3.129,1.312h6.772v39.7a4.138,4.138,0,0,0,1.308,3.093,4.185,4.185,0,0,0,3.082,1.266,4.187,4.187,0,0,0,3.083-1.266,4.217,4.217,0,0,0,1.261-3.093v-39.7h6.818a4.109,4.109,0,0,0,3.082-1.312,4.215,4.215,0,0,0,1.261-3.094,4.215,4.215,0,0,0-1.261-3.094,4.112,4.112,0,0,0-3.082-1.312h-6.818Zm60.666,1.312a4.141,4.141,0,0,0-1.308,3.094v2.25a24.694,24.694,0,0,0-17.14-6.656,24.6,24.6,0,0,0-18.307,7.781,25.686,25.686,0,0,0-7.612,18.7,25.632,25.632,0,0,0,7.612,18.657,24.667,24.667,0,0,0,18.307,7.734,24.694,24.694,0,0,0,17.14-6.656v2.3a4.138,4.138,0,0,0,1.308,3.093,4.183,4.183,0,0,0,3.082,1.266,4.183,4.183,0,0,0,3.082-1.266,4.213,4.213,0,0,0,1.261-3.093v-44.11a4.215,4.215,0,0,0-1.261-3.094,4.112,4.112,0,0,0-3.082-1.312,4.112,4.112,0,0,0-3.082,1.312h0ZM683.4-337.177a17.278,17.278,0,0,1-5.044-12.469,17.333,17.333,0,0,1,5.044-12.515,16.37,16.37,0,0,1,12.142-5.157,16.373,16.373,0,0,1,12.143,5.157,17.421,17.421,0,0,1,5,12.515,17.366,17.366,0,0,1-5,12.469,16.372,16.372,0,0,1-12.143,5.156,16.369,16.369,0,0,1-12.142-5.156h0Z"/>
  <path id="P" class="cls-1" d="M109.176-376.228a24.79,24.79,0,0,1,18.187,7.547,24.791,24.791,0,0,1,7.547,18.187,24.789,24.789,0,0,1-7.547,18.188,24.786,24.786,0,0,1-18.187,7.547,25.371,25.371,0,0,1-11.25-2.578,4.736,4.736,0,0,1-2.437-2.719,4.789,4.789,0,0,1,.234-3.656,4.585,4.585,0,0,1,2.719-2.391,4.412,4.412,0,0,1,3.609.234,16.073,16.073,0,0,0,7.125,1.641,15.662,15.662,0,0,0,11.484-4.781,15.66,15.66,0,0,0,4.782-11.485,15.659,15.659,0,0,0-4.782-11.484,15.658,15.658,0,0,0-11.484-4.781,15.658,15.658,0,0,0-11.484,4.781,15.66,15.66,0,0,0-4.781,11.484v38.157a4.686,4.686,0,0,1-1.359,3.375,4.6,4.6,0,0,1-3.375,1.406,4.452,4.452,0,0,1-3.328-1.406,4.6,4.6,0,0,1-1.406-3.375v-38.485a24.71,24.71,0,0,1,7.688-17.953,24.679,24.679,0,0,1,18.047-7.453h0Z"/>
  <g id="Font">
    <text id="eerbuds_copy" data-name="eerbuds copy" class="cls-2" transform="translate(314.83 -323.255) scale(1.856 1.863)"><tspan x="0">eer<tspan class="cls-3">b</tspan>uds</tspan></text>
    <text id="beta_copy" data-name="beta copy" class="cls-4" transform="translate(622.83 -323.255) scale(1.856 1.863)"><tspan x="0">b<tspan class="cls-5">eta</tspan></tspan></text>
    <text id="P_copy" data-name="P copy" class="cls-6" transform="translate(108.004 -307.556) scale(0.8)"><tspan x="0">P</tspan></text>
  </g>
  <g id="Shapes">
    <circle class="cls-7" cx="102.75" cy="-167.5" r="96.844"/>
    <path id="pb" class="cls-8" d="M73.968-192.967A24.212,24.212,0,0,1,91.7-185.611a24.369,24.369,0,0,1,7.377,17.846A24.366,24.366,0,0,1,91.7-149.92a24.133,24.133,0,0,1-17.732,7.4A24.686,24.686,0,0,1,63-145.031a4.789,4.789,0,0,1-2.459-2.753,4.867,4.867,0,0,1,.236-3.7,4.634,4.634,0,0,1,2.743-2.421,4.571,4.571,0,0,1,3.641.19,15.353,15.353,0,0,0,6.809,1.567,14.918,14.918,0,0,0,10.97-4.557,15.107,15.107,0,0,0,4.587-11.058,14.953,14.953,0,0,0-4.587-11.011,14.843,14.843,0,0,0-10.97-4.6,14.9,14.9,0,0,0-11.018,4.6,14.95,14.95,0,0,0-4.587,11.011v39.488a4.751,4.751,0,0,1-1.371,3.417,4.717,4.717,0,0,1-3.4,1.376,4.559,4.559,0,0,1-3.357-1.376,4.668,4.668,0,0,1-1.419-3.417v-39.488a24.369,24.369,0,0,1,7.377-17.846,24.266,24.266,0,0,1,17.78-7.356h0Zm57.832,0a24.213,24.213,0,0,1,17.732,7.356,24.368,24.368,0,0,1,7.377,17.846,24.366,24.366,0,0,1-7.377,17.845,24.134,24.134,0,0,1-17.732,7.4,24.188,24.188,0,0,1-17.78-7.4,24.366,24.366,0,0,1-7.377-17.845v-39.488a4.515,4.515,0,0,1,1.419-3.37,4.481,4.481,0,0,1,3.357-1.424,4.637,4.637,0,0,1,3.405,1.424,4.593,4.593,0,0,1,1.371,3.37v39.488a15.1,15.1,0,0,0,4.587,11.058A14.971,14.971,0,0,0,131.8-152.15a14.918,14.918,0,0,0,10.97-4.557,15.108,15.108,0,0,0,4.587-11.058,14.954,14.954,0,0,0-4.587-11.011,14.843,14.843,0,0,0-10.97-4.6,15.592,15.592,0,0,0-6.337,1.329,4.557,4.557,0,0,1-3.641.095,4.6,4.6,0,0,1-2.648-2.563,4.6,4.6,0,0,1-.094-3.655,4.6,4.6,0,0,1,2.553-2.657,24.833,24.833,0,0,1,10.167-2.136h0Z"/>
    <path id="P-2" data-name="P" class="cls-1" d="M269.778-201.407a33.49,33.49,0,0,1,24.613,10.251,33.737,33.737,0,0,1,10.212,24.7,33.734,33.734,0,0,1-10.212,24.7,33.485,33.485,0,0,1-24.613,10.25,34.224,34.224,0,0,1-15.224-3.5,6.42,6.42,0,0,1-3.3-3.693,6.525,6.525,0,0,1,.317-4.966,6.21,6.21,0,0,1,3.679-3.247,5.946,5.946,0,0,1,4.884.318,21.7,21.7,0,0,0,9.642,2.228,21.151,21.151,0,0,0,15.541-6.494,21.307,21.307,0,0,0,6.471-15.6,21.308,21.308,0,0,0-6.471-15.6,21.151,21.151,0,0,0-15.541-6.494,21.149,21.149,0,0,0-15.541,6.494,21.307,21.307,0,0,0-6.47,15.6v51.827a6.378,6.378,0,0,1-1.84,4.584,6.219,6.219,0,0,1-4.567,1.91,6.013,6.013,0,0,1-4.5-1.91,6.264,6.264,0,0,1-1.9-4.584V-166.9a33.623,33.623,0,0,1,10.4-24.385,33.337,33.337,0,0,1,24.422-10.124h0Z"/>
    <path id="b" class="cls-1" d="M555.617-198.165a32.479,32.479,0,0,1,23.788,9.869,32.689,32.689,0,0,1,9.9,23.939,32.688,32.688,0,0,1-9.9,23.939,32.373,32.373,0,0,1-23.788,9.933,32.445,32.445,0,0,1-23.851-9.933,32.687,32.687,0,0,1-9.895-23.939v-52.972a6.057,6.057,0,0,1,1.9-4.521,6.011,6.011,0,0,1,4.5-1.91,6.22,6.22,0,0,1,4.568,1.91,6.163,6.163,0,0,1,1.839,4.521v52.972a20.266,20.266,0,0,0,6.153,14.835,20.085,20.085,0,0,0,14.78,6.112,20.014,20.014,0,0,0,14.717-6.112,20.27,20.27,0,0,0,6.153-14.835,20.062,20.062,0,0,0-6.153-14.771,19.913,19.913,0,0,0-14.717-6.176,20.924,20.924,0,0,0-8.5,1.783,6.107,6.107,0,0,1-4.884.127,6.165,6.165,0,0,1-3.552-3.438,6.167,6.167,0,0,1-.127-4.9,6.168,6.168,0,0,1,3.425-3.566,33.315,33.315,0,0,1,13.638-2.865h0Z"/>
    <path id="eer" class="cls-1" d="M326.039-172.252a23.728,23.728,0,0,1,8.436-12.988,23.664,23.664,0,0,1,14.971-5.157,23.579,23.579,0,0,1,14.907,5.157,23.744,23.744,0,0,1,8.436,12.988h-46.75Zm23.407,41.767q18.52,0,29.179-12.1a5.737,5.737,0,0,0,1.523-4.266,5.768,5.768,0,0,0-1.967-4.139,5.9,5.9,0,0,0-4.313-1.464,5.51,5.51,0,0,0-4.06,1.974q-7.168,8.086-20.362,8.086a23.588,23.588,0,0,1-14.907-5.094,23.275,23.275,0,0,1-8.5-12.8H379.45a5.787,5.787,0,0,0,4.25-1.783,5.727,5.727,0,0,0,1.713-4.2,35.308,35.308,0,0,0-2.855-14.007,35.646,35.646,0,0,0-7.675-11.46A34.731,34.731,0,0,0,349.446-202.3a35.1,35.1,0,0,0-14.019,2.865,36.2,36.2,0,0,0-11.482,7.7,34.776,34.776,0,0,0-10.53,25.467,35.147,35.147,0,0,0,2.855,13.943,36.018,36.018,0,0,0,7.675,11.333,34.907,34.907,0,0,0,25.5,10.506h0Zm53.665-41.767a23.728,23.728,0,0,1,8.436-12.988,23.666,23.666,0,0,1,14.971-5.157,23.579,23.579,0,0,1,14.907,5.157,23.733,23.733,0,0,1,8.436,12.988h-46.75Zm23.407,41.767q18.522,0,29.179-12.1a5.733,5.733,0,0,0,1.523-4.266,5.768,5.768,0,0,0-1.967-4.139,5.9,5.9,0,0,0-4.313-1.464,5.513,5.513,0,0,0-4.06,1.974q-7.168,8.086-20.362,8.086a23.59,23.59,0,0,1-14.907-5.094,23.275,23.275,0,0,1-8.5-12.8h53.411a5.787,5.787,0,0,0,4.25-1.783,5.727,5.727,0,0,0,1.713-4.2,35.308,35.308,0,0,0-2.855-14.007,35.646,35.646,0,0,0-7.675-11.46A34.731,34.731,0,0,0,426.518-202.3a35.106,35.106,0,0,0-14.019,2.865,36.215,36.215,0,0,0-11.482,7.7,34.776,34.776,0,0,0-10.53,25.467,35.147,35.147,0,0,0,2.855,13.943,36.018,36.018,0,0,0,7.675,11.333,34.907,34.907,0,0,0,25.5,10.506h0Zm57.344-63.478v-2.356a5.727,5.727,0,0,0-1.713-4.2,5.722,5.722,0,0,0-4.186-1.782,5.794,5.794,0,0,0-4.251,1.782,5.73,5.73,0,0,0-1.712,4.2v59.912a5.73,5.73,0,0,0,1.712,4.2,5.9,5.9,0,0,0,4.251,1.719,5.822,5.822,0,0,0,4.186-1.719,5.727,5.727,0,0,0,1.713-4.2v-29.924a25.01,25.01,0,0,1,6.153-17,19.078,19.078,0,0,1,14.844-7,5.584,5.584,0,0,0,4.186-1.782,5.625,5.625,0,0,0,1.776-4.2,5.624,5.624,0,0,0-1.776-4.2,5.587,5.587,0,0,0-4.186-1.782,30.231,30.231,0,0,0-21,8.34h0Z"/>
    <path id="uds" class="cls-1" d="M651.4-200.584a5.831,5.831,0,0,0-1.776,4.265v29.925a25.942,25.942,0,0,1-5.709,16.935q-5.709,7.068-13.829,7.068-8.057,0-13.828-7.068a25.942,25.942,0,0,1-5.709-16.935v-30.115a5.727,5.727,0,0,0-1.713-4.2,5.722,5.722,0,0,0-4.187-1.782,5.794,5.794,0,0,0-4.25,1.782,5.726,5.726,0,0,0-1.712,4.2v30.115q0,14.835,9.2,25.4,9.2,10.506,22.2,10.506a28.143,28.143,0,0,0,19.538-7.832v1.91a5.758,5.758,0,0,0,1.776,4.2,5.684,5.684,0,0,0,4.187,1.719,5.682,5.682,0,0,0,4.186-1.719,5.864,5.864,0,0,0,1.713-4.2v-59.912a5.94,5.94,0,0,0-1.713-4.265,5.682,5.682,0,0,0-4.186-1.719,5.684,5.684,0,0,0-4.187,1.719h0Zm90.647-20.056a5.628,5.628,0,0,0-1.776-4.2,5.585,5.585,0,0,0-4.187-1.783,5.583,5.583,0,0,0-4.186,1.783,5.727,5.727,0,0,0-1.713,4.2V-193.2a33.639,33.639,0,0,0-23.344-9.1,33.4,33.4,0,0,0-24.866,10.569,34.887,34.887,0,0,0-10.34,25.4,34.811,34.811,0,0,0,10.34,25.34,33.5,33.5,0,0,0,24.866,10.506,33.769,33.769,0,0,0,23.344-9.041v3.119a5.727,5.727,0,0,0,1.713,4.2,5.682,5.682,0,0,0,4.186,1.719,5.684,5.684,0,0,0,4.187-1.719,5.629,5.629,0,0,0,1.776-4.2V-220.64Zm-51.7,71.245a23.47,23.47,0,0,1-6.85-16.936,23.547,23.547,0,0,1,6.85-17,22.242,22.242,0,0,1,16.493-7,22.24,22.24,0,0,1,16.493,7,23.335,23.335,0,0,1,6.851,16.936v0.063A23.471,23.471,0,0,1,723.33-149.4a22.237,22.237,0,0,1-16.493,7,22.238,22.238,0,0,1-16.493-7h0Zm84.621,18.91a22.133,22.133,0,0,0,15.668-6.112,19.779,19.779,0,0,0,6.471-14.835q0-9.869-7.232-15.217-4.123-2.993-13.384-5.6-7.3-2.037-9.452-3.565-2.347-1.782-2.347-5.539a8.153,8.153,0,0,1,2.981-6.367,10.679,10.679,0,0,1,7.3-2.674,11.187,11.187,0,0,1,5.773,1.528,9.252,9.252,0,0,1,3.742,4.138,5.791,5.791,0,0,0,3.362,3.12,5.731,5.731,0,0,0,4.5-.191,5.571,5.571,0,0,0,3.108-3.311,5.588,5.588,0,0,0-.19-4.584,20.7,20.7,0,0,0-8.12-9.168,22.786,22.786,0,0,0-12.179-3.438,21.987,21.987,0,0,0-15.668,6.112,19.693,19.693,0,0,0-6.534,14.835q0,9.805,7.232,15.025,4.122,3.057,13.321,5.6,7.294,1.974,9.452,3.629a6.613,6.613,0,0,1,2.473,5.667,8.083,8.083,0,0,1-3.044,6.367,10.455,10.455,0,0,1-7.232,2.674,12.426,12.426,0,0,1-7.168-2.483,16.819,16.819,0,0,1-5.075-5.158,5.664,5.664,0,0,0-3.679-2.674,5.777,5.777,0,0,0-4.5.7,5.971,5.971,0,0,0-2.6,3.756,5.705,5.705,0,0,0,.7,4.457,29.23,29.23,0,0,0,8.69,8.977,24.124,24.124,0,0,0,13.638,4.33h0Z"/>
  </g>
  <g id="Shapes-2" data-name="Shapes">
    <path id="Ellipse_2_copy" data-name="Ellipse 2 copy" class="cls-8" d="M103,3A100,100,0,1,1,3,103,100,100,0,0,1,103,3Zm0,8.813A91.188,91.188,0,1,1,11.813,103,91.188,91.188,0,0,1,103,11.813Z"/>
    <path id="pb-2" data-name="pb" class="cls-8" d="M73.968,77.033a25.151,25.151,0,0,1,25.109,25.2,25.233,25.233,0,0,1-25.109,25.249A24.686,24.686,0,0,1,63,124.969a4.789,4.789,0,0,1-2.459-2.753,4.867,4.867,0,0,1,.236-3.7,4.634,4.634,0,0,1,2.743-2.421,4.571,4.571,0,0,1,3.641.19,15.353,15.353,0,0,0,6.809,1.567,14.918,14.918,0,0,0,10.97-4.557,15.107,15.107,0,0,0,4.587-11.058A15.69,15.69,0,0,0,73.968,86.62a15.69,15.69,0,0,0-15.6,15.615v39.488a4.693,4.693,0,0,1-4.776,4.793,4.559,4.559,0,0,1-3.357-1.376,4.668,4.668,0,0,1-1.419-3.417V102.235a25.151,25.151,0,0,1,25.156-25.2h0Zm57.832,0a25.152,25.152,0,0,1,25.109,25.2A25.092,25.092,0,0,1,114.02,120.08a24.366,24.366,0,0,1-7.377-17.845V62.747a4.855,4.855,0,0,1,4.776-4.794,4.771,4.771,0,0,1,4.776,4.794v39.488A15.61,15.61,0,0,0,131.8,117.85a14.918,14.918,0,0,0,10.97-4.557,15.108,15.108,0,0,0,4.587-11.058A15.691,15.691,0,0,0,131.8,86.62a15.6,15.6,0,0,0-6.337,1.329,4.731,4.731,0,0,1-6.289-2.468,4.764,4.764,0,0,1,2.459-6.312A24.836,24.836,0,0,1,131.8,77.033h0Z"/>
    <path id="P-3" data-name="P" class="cls-8" d="M269.778,68.594A34.932,34.932,0,0,1,304.6,103.547,34.931,34.931,0,0,1,269.778,138.5a34.224,34.224,0,0,1-15.224-3.5,6.42,6.42,0,0,1-3.3-3.693,6.525,6.525,0,0,1,.317-4.966,6.21,6.21,0,0,1,3.679-3.247,5.946,5.946,0,0,1,4.884.318,21.7,21.7,0,0,0,9.642,2.228,22.133,22.133,0,0,0,22.012-22.093,22.012,22.012,0,1,0-44.023,0v51.827a6.378,6.378,0,0,1-1.84,4.584,6.219,6.219,0,0,1-4.567,1.91,6.013,6.013,0,0,1-4.5-1.91,6.264,6.264,0,0,1-1.9-4.584V103.1a33.625,33.625,0,0,1,10.4-24.385,33.337,33.337,0,0,1,24.422-10.123h0Z"/>
    <path id="b-2" data-name="b" class="cls-8" d="M555.617,71.835A33.74,33.74,0,0,1,589.3,105.643a33.715,33.715,0,1,1-67.43,0V52.671a6.512,6.512,0,0,1,6.406-6.431,6.4,6.4,0,0,1,6.407,6.431v52.972a20.938,20.938,0,0,0,20.933,20.947,20.014,20.014,0,0,0,14.717-6.112,20.27,20.27,0,0,0,6.153-14.835A21.048,21.048,0,0,0,555.617,84.7a20.929,20.929,0,0,0-8.5,1.783,6.441,6.441,0,0,1-8.563-8.213,6.169,6.169,0,0,1,3.425-3.565,33.314,33.314,0,0,1,13.638-2.865h0Z"/>
    <path id="eer-2" data-name="eer" class="cls-8" d="M326.039,97.748a24.12,24.12,0,0,1,46.75,0h-46.75Zm23.407,41.767q18.52,0,29.179-12.1a5.945,5.945,0,0,0-.444-8.405,5.9,5.9,0,0,0-4.313-1.464,5.51,5.51,0,0,0-4.06,1.974q-7.168,8.087-20.362,8.086a23.582,23.582,0,0,1-14.907-5.094,23.275,23.275,0,0,1-8.5-12.8H379.45a5.787,5.787,0,0,0,4.25-1.783,5.727,5.727,0,0,0,1.713-4.2,36.329,36.329,0,0,0-10.53-25.467A34.734,34.734,0,0,0,349.446,67.7a35.1,35.1,0,0,0-14.019,2.865,36.213,36.213,0,0,0-11.482,7.7,34.777,34.777,0,0,0-10.53,25.467,35.147,35.147,0,0,0,2.855,13.943,36.018,36.018,0,0,0,7.675,11.333,34.907,34.907,0,0,0,25.5,10.506h0Zm53.665-41.767a24.12,24.12,0,0,1,46.75,0h-46.75Zm23.407,41.767q18.522,0,29.179-12.1a5.945,5.945,0,0,0-.444-8.405,5.9,5.9,0,0,0-4.313-1.464,5.513,5.513,0,0,0-4.06,1.974q-7.168,8.087-20.362,8.086a23.584,23.584,0,0,1-14.907-5.094,23.275,23.275,0,0,1-8.5-12.8h53.411a5.787,5.787,0,0,0,4.25-1.783,5.727,5.727,0,0,0,1.713-4.2,36.329,36.329,0,0,0-10.53-25.467A34.734,34.734,0,0,0,426.518,67.7,35.1,35.1,0,0,0,412.5,70.562a36.224,36.224,0,0,0-11.482,7.7,34.777,34.777,0,0,0-10.53,25.467,35.147,35.147,0,0,0,2.855,13.943,36.018,36.018,0,0,0,7.675,11.333,34.907,34.907,0,0,0,25.5,10.506h0Zm57.344-63.478V73.682a5.968,5.968,0,0,0-5.9-5.985,5.791,5.791,0,0,0-4.251,1.783,5.729,5.729,0,0,0-1.712,4.2v59.912a5.73,5.73,0,0,0,1.712,4.2,5.9,5.9,0,0,0,4.251,1.719,5.822,5.822,0,0,0,4.186-1.719,5.727,5.727,0,0,0,1.713-4.2V103.669a25.01,25.01,0,0,1,6.153-17,19.079,19.079,0,0,1,14.844-7,5.948,5.948,0,0,0,4.186-10.187,5.585,5.585,0,0,0-4.186-1.783,30.232,30.232,0,0,0-21,8.34h0Z"/>
    <path id="uds-2" data-name="uds" class="cls-8" d="M651.4,69.416a5.832,5.832,0,0,0-1.776,4.266v29.924a25.947,25.947,0,0,1-5.709,16.936q-5.709,7.066-13.829,7.067-8.057,0-13.828-7.067a25.947,25.947,0,0,1-5.709-16.936V73.491a5.968,5.968,0,0,0-5.9-5.985,5.791,5.791,0,0,0-4.25,1.783,5.725,5.725,0,0,0-1.712,4.2v30.115q0,14.835,9.2,25.4,9.2,10.506,22.2,10.506a28.143,28.143,0,0,0,19.538-7.832v1.911a5.758,5.758,0,0,0,1.776,4.2,5.957,5.957,0,0,0,8.373,0,5.864,5.864,0,0,0,1.713-4.2V73.682a5.941,5.941,0,0,0-1.713-4.266,5.957,5.957,0,0,0-8.373,0h0ZM742.043,49.36a5.916,5.916,0,0,0-10.149-4.2,5.727,5.727,0,0,0-1.713,4.2V76.8a34.509,34.509,0,0,0-48.21,1.464,34.889,34.889,0,0,0-10.34,25.4,34.811,34.811,0,0,0,10.34,25.34,34.669,34.669,0,0,0,48.21,1.465v3.12a5.916,5.916,0,0,0,10.086,4.2,5.628,5.628,0,0,0,1.776-4.2V49.36Zm-51.7,71.245a24.439,24.439,0,0,1,0-33.935,22.922,22.922,0,0,1,32.986,0,23.335,23.335,0,0,1,6.851,16.936v0.063a23.471,23.471,0,0,1-6.851,16.936,22.921,22.921,0,0,1-32.986,0h0Zm84.621,18.91a22.133,22.133,0,0,0,15.668-6.112,19.779,19.779,0,0,0,6.471-14.835q0-9.868-7.232-15.217-4.123-2.993-13.384-5.6-7.3-2.037-9.452-3.565-2.347-1.782-2.347-5.539a8.153,8.153,0,0,1,2.981-6.367,10.68,10.68,0,0,1,7.3-2.674,11.19,11.19,0,0,1,5.773,1.528,9.254,9.254,0,0,1,3.742,4.138,5.791,5.791,0,0,0,3.362,3.12,5.728,5.728,0,0,0,4.5-.191,5.894,5.894,0,0,0,2.918-7.895,20.7,20.7,0,0,0-8.12-9.168A22.786,22.786,0,0,0,774.965,67.7,21.988,21.988,0,0,0,759.3,73.809a19.693,19.693,0,0,0-6.534,14.835q0,9.805,7.232,15.025,4.122,3.057,13.321,5.6,7.294,1.974,9.452,3.629a6.613,6.613,0,0,1,2.473,5.667,8.083,8.083,0,0,1-3.044,6.367,10.455,10.455,0,0,1-7.232,2.674,12.426,12.426,0,0,1-7.168-2.483,16.819,16.819,0,0,1-5.075-5.158,5.664,5.664,0,0,0-3.679-2.674,5.777,5.777,0,0,0-4.5.7,5.971,5.971,0,0,0-2.6,3.756,5.705,5.705,0,0,0,.7,4.457,29.23,29.23,0,0,0,8.69,8.977,24.124,24.124,0,0,0,13.638,4.33h0Z"/>
  </g>
</svg>
