<svg id="Peerbuds-red" xmlns="http://www.w3.org/2000/svg" width="800" height="205" viewBox="0 0 800 205">
  <defs>
    <style>
      .cls-1, .cls-3 {
        fill: #f67864;
      }

      .cls-2 {
        fill: #fff;
      }

      .cls-2, .cls-3 {
        fill-rule: evenodd;
      }
    </style>
  </defs>
  <g id="Shapes">
    <circle class="cls-1" cx="102" cy="103" r="100"/>
    <path id="pb" class="cls-2" d="M72.968,78.033a25.151,25.151,0,0,1,25.109,25.2,25.233,25.233,0,0,1-25.109,25.249A24.686,24.686,0,0,1,62,125.969a4.789,4.789,0,0,1-2.459-2.753,4.867,4.867,0,0,1,.236-3.7,4.634,4.634,0,0,1,2.743-2.421,4.571,4.571,0,0,1,3.641.19,15.353,15.353,0,0,0,6.809,1.567,14.918,14.918,0,0,0,10.97-4.557,15.107,15.107,0,0,0,4.587-11.058A15.69,15.69,0,0,0,72.968,87.62a15.69,15.69,0,0,0-15.6,15.615v39.488a4.693,4.693,0,0,1-4.776,4.793,4.559,4.559,0,0,1-3.357-1.376,4.668,4.668,0,0,1-1.419-3.417V103.235a25.151,25.151,0,0,1,25.156-25.2h0Zm57.832,0a25.152,25.152,0,0,1,25.109,25.2A25.092,25.092,0,0,1,113.02,121.08a24.366,24.366,0,0,1-7.377-17.845V63.747a4.855,4.855,0,0,1,4.776-4.794,4.771,4.771,0,0,1,4.776,4.794v39.488A15.61,15.61,0,0,0,130.8,118.85a14.918,14.918,0,0,0,10.97-4.557,15.108,15.108,0,0,0,4.587-11.058A15.691,15.691,0,0,0,130.8,87.62a15.6,15.6,0,0,0-6.337,1.329,4.731,4.731,0,0,1-6.289-2.468,4.764,4.764,0,0,1,2.459-6.312A24.836,24.836,0,0,1,130.8,78.033h0Z"/>
    <path id="P" class="cls-3" d="M268.778,69.594A34.932,34.932,0,0,1,303.6,104.547,34.931,34.931,0,0,1,268.778,139.5a34.224,34.224,0,0,1-15.224-3.5,6.42,6.42,0,0,1-3.3-3.693,6.525,6.525,0,0,1,.317-4.966,6.21,6.21,0,0,1,3.679-3.247,5.946,5.946,0,0,1,4.884.318,21.7,21.7,0,0,0,9.642,2.228,22.133,22.133,0,0,0,22.012-22.093,22.012,22.012,0,1,0-44.023,0v51.827a6.378,6.378,0,0,1-1.84,4.584,6.219,6.219,0,0,1-4.567,1.91,6.013,6.013,0,0,1-4.5-1.91,6.264,6.264,0,0,1-1.9-4.584V104.1a33.625,33.625,0,0,1,10.4-24.385,33.337,33.337,0,0,1,24.422-10.123h0Z"/>
    <path id="b" class="cls-3" d="M554.617,72.835A33.74,33.74,0,0,1,588.3,106.643a33.715,33.715,0,1,1-67.43,0V53.671a6.511,6.511,0,0,1,6.406-6.431,6.4,6.4,0,0,1,6.407,6.431v52.972a20.938,20.938,0,0,0,20.933,20.947,20.014,20.014,0,0,0,14.717-6.112,20.27,20.27,0,0,0,6.153-14.835A21.048,21.048,0,0,0,554.617,85.7a20.927,20.927,0,0,0-8.5,1.783,6.441,6.441,0,0,1-8.563-8.213,6.169,6.169,0,0,1,3.425-3.565,33.314,33.314,0,0,1,13.638-2.865h0Z"/>
    <path id="eer" class="cls-3" d="M325.039,98.748a24.12,24.12,0,0,1,46.75,0h-46.75Zm23.407,41.767q18.52,0,29.179-12.1a5.945,5.945,0,0,0-.444-8.405,5.9,5.9,0,0,0-4.313-1.464,5.51,5.51,0,0,0-4.06,1.974q-7.168,8.087-20.362,8.086a23.588,23.588,0,0,1-14.907-5.094,23.275,23.275,0,0,1-8.5-12.8H378.45a5.787,5.787,0,0,0,4.25-1.783,5.727,5.727,0,0,0,1.713-4.2,36.329,36.329,0,0,0-10.53-25.467A34.734,34.734,0,0,0,348.446,68.7a35.1,35.1,0,0,0-14.019,2.865,36.218,36.218,0,0,0-11.482,7.7,34.777,34.777,0,0,0-10.53,25.467,35.147,35.147,0,0,0,2.855,13.943,36.018,36.018,0,0,0,7.675,11.333,34.907,34.907,0,0,0,25.5,10.506h0Zm53.665-41.767a24.12,24.12,0,0,1,46.75,0h-46.75Zm23.407,41.767q18.522,0,29.179-12.1a5.945,5.945,0,0,0-.444-8.405,5.9,5.9,0,0,0-4.313-1.464,5.513,5.513,0,0,0-4.06,1.974q-7.168,8.087-20.362,8.086a23.59,23.59,0,0,1-14.907-5.094,23.275,23.275,0,0,1-8.5-12.8h53.411a5.787,5.787,0,0,0,4.25-1.783,5.727,5.727,0,0,0,1.713-4.2,36.329,36.329,0,0,0-10.53-25.467A34.734,34.734,0,0,0,425.518,68.7,35.106,35.106,0,0,0,411.5,71.562a36.229,36.229,0,0,0-11.482,7.7,34.777,34.777,0,0,0-10.53,25.467,35.147,35.147,0,0,0,2.855,13.943,36.018,36.018,0,0,0,7.675,11.333,34.907,34.907,0,0,0,25.5,10.506h0Zm57.344-63.478V74.682a5.968,5.968,0,0,0-5.9-5.985,5.792,5.792,0,0,0-4.251,1.783,5.729,5.729,0,0,0-1.712,4.2v59.911a5.73,5.73,0,0,0,1.712,4.2,5.9,5.9,0,0,0,4.251,1.719,5.822,5.822,0,0,0,4.186-1.719,5.727,5.727,0,0,0,1.713-4.2V104.669a25.01,25.01,0,0,1,6.153-17,19.079,19.079,0,0,1,14.844-7,5.948,5.948,0,0,0,4.186-10.187,5.585,5.585,0,0,0-4.186-1.783,30.232,30.232,0,0,0-21,8.34h0Z"/>
    <path id="uds" class="cls-3" d="M650.4,70.416a5.832,5.832,0,0,0-1.776,4.266v29.924a25.942,25.942,0,0,1-5.709,16.935q-5.709,7.068-13.829,7.068-8.057,0-13.828-7.068a25.942,25.942,0,0,1-5.709-16.935V74.491a5.968,5.968,0,0,0-5.9-5.985,5.791,5.791,0,0,0-4.25,1.783,5.725,5.725,0,0,0-1.712,4.2v30.115q0,14.835,9.2,25.4,9.2,10.506,22.2,10.506a28.143,28.143,0,0,0,19.538-7.832v1.91a5.758,5.758,0,0,0,1.776,4.2,5.957,5.957,0,0,0,8.373,0,5.864,5.864,0,0,0,1.713-4.2V74.682a5.941,5.941,0,0,0-1.713-4.266,5.957,5.957,0,0,0-8.373,0h0ZM741.043,50.36a5.916,5.916,0,0,0-10.149-4.2,5.727,5.727,0,0,0-1.713,4.2V77.8a34.509,34.509,0,0,0-48.21,1.464,34.889,34.889,0,0,0-10.34,25.4,34.811,34.811,0,0,0,10.34,25.34,34.669,34.669,0,0,0,48.21,1.465v3.119a5.916,5.916,0,0,0,10.086,4.2,5.629,5.629,0,0,0,1.776-4.2V50.36Zm-51.7,71.245a24.439,24.439,0,0,1,0-33.935,22.922,22.922,0,0,1,32.986,0,23.335,23.335,0,0,1,6.851,16.936v0.063a23.471,23.471,0,0,1-6.851,16.936,22.921,22.921,0,0,1-32.986,0h0Zm84.621,18.91a22.133,22.133,0,0,0,15.668-6.112,19.779,19.779,0,0,0,6.471-14.835q0-9.868-7.232-15.217-4.123-2.993-13.384-5.6-7.3-2.037-9.452-3.565-2.347-1.782-2.347-5.539a8.153,8.153,0,0,1,2.981-6.367,10.68,10.68,0,0,1,7.3-2.674,11.19,11.19,0,0,1,5.773,1.528,9.254,9.254,0,0,1,3.742,4.138,5.791,5.791,0,0,0,3.362,3.12,5.728,5.728,0,0,0,4.5-.191,5.894,5.894,0,0,0,2.918-7.895,20.7,20.7,0,0,0-8.12-9.168A22.786,22.786,0,0,0,773.965,68.7,21.988,21.988,0,0,0,758.3,74.809a19.693,19.693,0,0,0-6.534,14.835q0,9.805,7.232,15.025,4.122,3.057,13.321,5.6,7.294,1.974,9.452,3.629a6.613,6.613,0,0,1,2.473,5.667,8.083,8.083,0,0,1-3.044,6.367,10.455,10.455,0,0,1-7.232,2.674,12.426,12.426,0,0,1-7.168-2.483,16.819,16.819,0,0,1-5.075-5.158,5.664,5.664,0,0,0-3.679-2.674,5.777,5.777,0,0,0-4.5.7,5.971,5.971,0,0,0-2.6,3.756,5.705,5.705,0,0,0,.7,4.457,29.23,29.23,0,0,0,8.69,8.977,24.124,24.124,0,0,0,13.638,4.33h0Z"/>
  </g>
  <g id="Shapes-2" data-name="Shapes">
    <path id="Ellipse_2_copy" data-name="Ellipse 2 copy" class="cls-2" d="M102,274A100,100,0,1,1,2,374,100,100,0,0,1,102,274Zm0,8.813A91.188,91.188,0,1,1,10.813,374,91.188,91.188,0,0,1,102,282.813Z"/>
    <path id="pb-2" data-name="pb" class="cls-2" d="M72.968,348.033a25.226,25.226,0,0,1,0,50.451A24.686,24.686,0,0,1,62,395.969a4.789,4.789,0,0,1-2.459-2.753,4.867,4.867,0,0,1,.236-3.7,4.634,4.634,0,0,1,2.743-2.421,4.571,4.571,0,0,1,3.641.19,15.353,15.353,0,0,0,6.809,1.567,14.918,14.918,0,0,0,10.97-4.557,15.107,15.107,0,0,0,4.587-11.058A15.691,15.691,0,0,0,72.968,357.62a15.69,15.69,0,0,0-15.6,15.615v39.488a4.693,4.693,0,0,1-4.776,4.793,4.559,4.559,0,0,1-3.357-1.376,4.668,4.668,0,0,1-1.419-3.417V373.235a25.15,25.15,0,0,1,25.156-25.2h0Zm57.832,0a25.223,25.223,0,1,1-25.157,25.2V333.747a4.855,4.855,0,0,1,4.776-4.794,4.771,4.771,0,0,1,4.776,4.794v39.488A15.61,15.61,0,0,0,130.8,388.85a14.918,14.918,0,0,0,10.97-4.557,15.108,15.108,0,0,0,4.587-11.058A15.691,15.691,0,0,0,130.8,357.62a15.592,15.592,0,0,0-6.337,1.329,4.731,4.731,0,0,1-6.289-2.468,4.763,4.763,0,0,1,2.459-6.312,24.833,24.833,0,0,1,10.167-2.136h0Z"/>
    <path id="P-2" data-name="P" class="cls-2" d="M268.778,339.593a34.954,34.954,0,0,1,0,69.908,34.224,34.224,0,0,1-15.224-3.5,6.42,6.42,0,0,1-3.3-3.693,6.525,6.525,0,0,1,.317-4.966,6.21,6.21,0,0,1,3.679-3.247,5.946,5.946,0,0,1,4.884.318,21.7,21.7,0,0,0,9.642,2.228,22.077,22.077,0,1,0-22.011-22.093v51.827a6.378,6.378,0,0,1-1.84,4.584,6.219,6.219,0,0,1-4.567,1.91,6.013,6.013,0,0,1-4.5-1.91,6.264,6.264,0,0,1-1.9-4.584V374.1a35.049,35.049,0,0,1,34.825-34.509h0Z"/>
    <path id="b-2" data-name="b" class="cls-2" d="M554.617,342.835a33.837,33.837,0,1,1-33.746,33.808V323.671a6.511,6.511,0,0,1,6.406-6.431,6.4,6.4,0,0,1,6.407,6.431v52.972a20.938,20.938,0,0,0,20.933,20.947,20.014,20.014,0,0,0,14.717-6.112,20.27,20.27,0,0,0,6.153-14.835,21.049,21.049,0,0,0-20.87-20.947,20.924,20.924,0,0,0-8.5,1.783,6.425,6.425,0,1,1-5.138-11.779,33.315,33.315,0,0,1,13.638-2.865h0Z"/>
    <path id="eer-2" data-name="eer" class="cls-2" d="M325.039,368.748a24.12,24.12,0,0,1,46.75,0h-46.75Zm23.407,41.767q18.52,0,29.179-12.1a5.945,5.945,0,0,0-.444-8.405,5.9,5.9,0,0,0-4.313-1.464,5.51,5.51,0,0,0-4.06,1.974q-7.168,8.086-20.362,8.086a23.582,23.582,0,0,1-14.907-5.094,23.275,23.275,0,0,1-8.5-12.8H378.45a5.787,5.787,0,0,0,4.25-1.783,5.727,5.727,0,0,0,1.713-4.2,36.327,36.327,0,0,0-10.53-25.467A34.731,34.731,0,0,0,348.446,338.7a35.1,35.1,0,0,0-14.019,2.865,36.2,36.2,0,0,0-11.482,7.7,34.776,34.776,0,0,0-10.53,25.467,35.147,35.147,0,0,0,2.855,13.943,36.018,36.018,0,0,0,7.675,11.333,34.907,34.907,0,0,0,25.5,10.506h0Zm53.665-41.767a24.12,24.12,0,0,1,46.75,0h-46.75Zm23.407,41.767q18.522,0,29.179-12.1a5.945,5.945,0,0,0-.444-8.405,5.9,5.9,0,0,0-4.313-1.464,5.513,5.513,0,0,0-4.06,1.974q-7.168,8.086-20.362,8.086a23.584,23.584,0,0,1-14.907-5.094,23.275,23.275,0,0,1-8.5-12.8h53.411a5.787,5.787,0,0,0,4.25-1.783,5.727,5.727,0,0,0,1.713-4.2,36.327,36.327,0,0,0-10.53-25.467A34.731,34.731,0,0,0,425.518,338.7a35.106,35.106,0,0,0-14.019,2.865,36.215,36.215,0,0,0-11.482,7.7,34.776,34.776,0,0,0-10.53,25.467,35.147,35.147,0,0,0,2.855,13.943,36.018,36.018,0,0,0,7.675,11.333,34.907,34.907,0,0,0,25.5,10.506h0Zm57.344-63.478v-2.356a5.967,5.967,0,0,0-5.9-5.984,5.794,5.794,0,0,0-4.251,1.782,5.73,5.73,0,0,0-1.712,4.2v59.913a5.73,5.73,0,0,0,1.712,4.2,5.9,5.9,0,0,0,4.251,1.719,5.822,5.822,0,0,0,4.186-1.719,5.727,5.727,0,0,0,1.713-4.2V374.669a25.01,25.01,0,0,1,6.153-17,19.078,19.078,0,0,1,14.844-7,5.985,5.985,0,0,0,0-11.969,30.231,30.231,0,0,0-21,8.34h0Z"/>
    <path id="uds-2" data-name="uds" class="cls-2" d="M650.4,340.416a5.831,5.831,0,0,0-1.776,4.265v29.925a25.947,25.947,0,0,1-5.709,16.936q-5.709,7.067-13.829,7.067-8.057,0-13.828-7.067a25.947,25.947,0,0,1-5.709-16.936V344.49a5.967,5.967,0,0,0-5.9-5.984,5.794,5.794,0,0,0-4.25,1.782,5.726,5.726,0,0,0-1.712,4.2v30.116q0,14.835,9.2,25.4,9.2,10.506,22.2,10.506a28.143,28.143,0,0,0,19.538-7.832v1.911a5.758,5.758,0,0,0,1.776,4.2,5.957,5.957,0,0,0,8.373,0,5.864,5.864,0,0,0,1.713-4.2V344.681a5.94,5.94,0,0,0-1.713-4.265,5.957,5.957,0,0,0-8.373,0h0Zm90.647-20.056a5.916,5.916,0,0,0-10.149-4.2,5.727,5.727,0,0,0-1.713,4.2V347.8a34.51,34.51,0,0,0-48.21,1.465,36.3,36.3,0,0,0,0,50.743,34.669,34.669,0,0,0,48.21,1.465v3.12a5.916,5.916,0,0,0,10.086,4.2,5.628,5.628,0,0,0,1.776-4.2V320.36Zm-51.7,71.245a24.439,24.439,0,0,1,0-33.935,22.921,22.921,0,0,1,32.986,0,23.335,23.335,0,0,1,6.851,16.936v0.063a23.471,23.471,0,0,1-6.851,16.936,22.921,22.921,0,0,1-32.986,0h0Zm84.621,18.91a22.133,22.133,0,0,0,15.668-6.112,19.779,19.779,0,0,0,6.471-14.835q0-9.869-7.232-15.217-4.123-2.993-13.384-5.6-7.3-2.037-9.452-3.565-2.347-1.782-2.347-5.539a8.153,8.153,0,0,1,2.981-6.367,10.679,10.679,0,0,1,7.3-2.674,11.187,11.187,0,0,1,5.773,1.528,9.252,9.252,0,0,1,3.742,4.138,5.791,5.791,0,0,0,3.362,3.12,5.731,5.731,0,0,0,4.5-.191,5.894,5.894,0,0,0,2.918-7.895,20.7,20.7,0,0,0-8.12-9.168,22.786,22.786,0,0,0-12.179-3.438,21.987,21.987,0,0,0-15.668,6.112,19.693,19.693,0,0,0-6.534,14.835q0,9.805,7.232,15.025,4.122,3.057,13.321,5.6,7.294,1.974,9.452,3.629a6.613,6.613,0,0,1,2.473,5.667,8.083,8.083,0,0,1-3.044,6.367,10.455,10.455,0,0,1-7.232,2.674,12.426,12.426,0,0,1-7.168-2.483,16.819,16.819,0,0,1-5.075-5.158,5.664,5.664,0,0,0-3.679-2.674,5.777,5.777,0,0,0-4.5.7,5.971,5.971,0,0,0-2.6,3.756,5.705,5.705,0,0,0,.7,4.457,29.23,29.23,0,0,0,8.69,8.977,24.124,24.124,0,0,0,13.638,4.33h0Z"/>
  </g>
</svg>
